<?xml version="1.0" encoding="UTF-8" standalone="no"?>
<!DOCTYPE svg PUBLIC "-//W3C//DTD SVG 1.1//EN" "http://www.w3.org/Graphics/SVG/1.1/DTD/svg11.dtd">
<svg width="100%" height="100%" viewBox="0 0 1259 1267" version="1.1" xmlns="http://www.w3.org/2000/svg" xmlns:xlink="http://www.w3.org/1999/xlink" xml:space="preserve" xmlns:serif="http://www.serif.com/" style="fill-rule:evenodd;clip-rule:evenodd;stroke-linecap:round;stroke-linejoin:round;stroke-miterlimit:1.5;">
    <g transform="matrix(1,0,0,1,-1101.04,-315.848)">
        <g id="elements">
            <g transform="matrix(-1.77196,2.17002e-16,-2.17002e-16,-1.77196,3018.74,2571.09)">
                <path d="M895,680L1011.91,882.5L778.087,882.5L895,680Z" style="fill:rgb(255,0,245);fill-opacity:0.09;stroke:rgb(255,0,213);stroke-width:1.13px;"/>
            </g>
            <g transform="matrix(-1.77196,2.17002e-16,-2.17002e-16,-1.77196,3327.78,2058.68)">
                <path d="M895,680L1011.91,882.5L778.087,882.5L895,680Z" style="fill:rgb(255,0,245);fill-opacity:0.09;stroke:rgb(255,0,213);stroke-width:1.13px;"/>
            </g>
            <g transform="matrix(-0.885979,1.53456,-1.53456,-0.885979,3492.6,132.712)">
                <path d="M895,680L1011.91,882.5L778.087,882.5L895,680Z" style="fill:rgb(255,0,245);fill-opacity:0.09;stroke:rgb(255,0,213);stroke-width:1.13px;"/>
            </g>
            <g transform="matrix(-0.885979,1.53456,-1.53456,-0.885979,4081.4,135.629)">
                <path d="M895,680L1011.91,882.5L778.087,882.5L895,680Z" style="fill:rgb(255,0,245);fill-opacity:0.09;stroke:rgb(255,0,213);stroke-width:1.13px;"/>
            </g>
            <g transform="matrix(-1.77196,-2.17002e-16,-2.17002e-16,1.77196,3312.18,-149.634)">
                <path d="M895,680L1011.91,882.5L778.087,882.5L895,680Z" style="fill:rgb(255,0,245);fill-opacity:0.09;stroke:rgb(255,0,213);stroke-width:1.13px;"/>
            </g>
            <g transform="matrix(-1.77196,2.17002e-16,-2.17002e-16,-1.77196,3609.11,2573.86)">
                <path d="M895,680L1011.91,882.5L778.087,882.5L895,680Z" style="fill:rgb(255,0,245);fill-opacity:0.09;stroke:rgb(255,0,213);stroke-width:1.13px;"/>
            </g>
            <g transform="matrix(-1,1.22465e-16,1.22465e-16,1,2403.93,633.295)">
                <g transform="matrix(-1.12187,1.3739e-16,-8.28672e-17,-0.676662,1980.26,662.638)">
                    <path d="M1126,497L667,497C666.108,497 665.357,495.924 665.214,494.488C665.199,494.326 665.19,494.164 665.19,494C665.19,492.707 665.69,491.568 666.42,491.158L743.02,448.158C743.573,447.848 744.181,447.999 744.655,448.562C745.129,449.126 745.41,450.033 745.41,451L745.41,491L1126,491C1127,491 1127.81,492.344 1127.81,494C1127.81,495.656 1127,497 1126,497Z" style="fill:rgb(143,143,143);"/>
                </g>
                <g transform="matrix(1.12187,0,0,0.676662,-31.2599,-22.1448)">
                    <path d="M1126,497L667,497C666.108,497 665.357,495.924 665.214,494.488C665.199,494.326 665.19,494.164 665.19,494C665.19,492.707 665.69,491.568 666.42,491.158L743.02,448.158C743.573,447.848 744.181,447.999 744.655,448.562C745.129,449.126 745.41,450.033 745.41,451L745.41,491L1126,491C1127,491 1127.81,492.344 1127.81,494C1127.81,495.656 1127,497 1126,497Z" style="fill:rgb(143,143,143);"/>
                </g>
            </g>
            <g transform="matrix(-0.5,-0.866025,-0.866025,0.5,2351.59,1374.98)">
                <g transform="matrix(-1.12187,1.3739e-16,-8.28672e-17,-0.676662,1980.26,662.638)">
                    <path d="M1126,497L667,497C666.108,497 665.357,495.924 665.214,494.488C665.199,494.326 665.19,494.164 665.19,494C665.19,492.707 665.69,491.568 666.42,491.158L743.02,448.158C743.573,447.848 744.181,447.999 744.655,448.562C745.129,449.126 745.41,450.033 745.41,451L745.41,491L1126,491C1127,491 1127.81,492.344 1127.81,494C1127.81,495.656 1127,497 1126,497Z" style="fill:rgb(143,143,143);"/>
                </g>
                <g transform="matrix(1.12187,0,0,0.676662,-31.2599,-22.1448)">
                    <path d="M1126,497L667,497C666.108,497 665.357,495.924 665.214,494.488C665.199,494.326 665.19,494.164 665.19,494C665.19,492.707 665.69,491.568 666.42,491.158L743.02,448.158C743.573,447.848 744.181,447.999 744.655,448.562C745.129,449.126 745.41,450.033 745.41,451L745.41,491L1126,491C1127,491 1127.81,492.344 1127.81,494C1127.81,495.656 1127,497 1126,497Z" style="fill:rgb(143,143,143);"/>
                </g>
            </g>
            <g transform="matrix(0.5,-0.866025,-0.866025,-0.5,1677.89,1704.07)">
                <g transform="matrix(-1.12187,1.3739e-16,-8.28672e-17,-0.676662,1980.26,662.638)">
                    <path d="M1126,497L667,497C666.108,497 665.357,495.924 665.214,494.488C665.199,494.326 665.19,494.164 665.19,494C665.19,492.707 665.69,491.568 666.42,491.158L743.02,448.158C743.573,447.848 744.181,447.999 744.655,448.562C745.129,449.126 745.41,450.033 745.41,451L745.41,491L1126,491C1127,491 1127.81,492.344 1127.81,494C1127.81,495.656 1127,497 1126,497Z" style="fill:rgb(143,143,143);"/>
                </g>
                <g transform="matrix(1.12187,0,0,0.676662,-31.2599,-22.1448)">
                    <path d="M1126,497L667,497C666.108,497 665.357,495.924 665.214,494.488C665.199,494.326 665.19,494.164 665.19,494C665.19,492.707 665.69,491.568 666.42,491.158L743.02,448.158C743.573,447.848 744.181,447.999 744.655,448.562C745.129,449.126 745.41,450.033 745.41,451L745.41,491L1126,491C1127,491 1127.81,492.344 1127.81,494C1127.81,495.656 1127,497 1126,497Z" style="fill:rgb(143,143,143);"/>
                </g>
            </g>
            <g transform="matrix(1,4.44089e-16,4.44089e-16,-1,1056.97,1273.92)">
                <g transform="matrix(-1.12187,1.3739e-16,-8.28672e-17,-0.676662,1980.26,662.638)">
                    <path d="M1126,497L667,497C666.108,497 665.357,495.924 665.214,494.488C665.199,494.326 665.19,494.164 665.19,494C665.19,492.707 665.69,491.568 666.42,491.158L743.02,448.158C743.573,447.848 744.181,447.999 744.655,448.562C745.129,449.126 745.41,450.033 745.41,451L745.41,491L1126,491C1127,491 1127.81,492.344 1127.81,494C1127.81,495.656 1127,497 1126,497Z" style="fill:rgb(82,82,82);"/>
                </g>
                <g transform="matrix(1.12187,0,0,0.676662,-31.2599,-22.1448)">
                    <path d="M1126,497L667,497C666.108,497 665.357,495.924 665.214,494.488C665.199,494.326 665.19,494.164 665.19,494C665.19,492.707 665.69,491.568 666.42,491.158L743.02,448.158C743.573,447.848 744.181,447.999 744.655,448.562C745.129,449.126 745.41,450.033 745.41,451L745.41,491L1126,491C1127,491 1127.81,492.344 1127.81,494C1127.81,495.656 1127,497 1126,497Z" style="fill:rgb(143,143,143);"/>
                </g>
            </g>
            <g transform="matrix(0.5,0.866025,0.866025,-0.5,1113.63,526.572)">
                <g transform="matrix(-1.12187,1.3739e-16,-8.28672e-17,-0.676662,1980.26,662.638)">
                    <path d="M1126,497L667,497C666.108,497 665.357,495.924 665.214,494.488C665.199,494.326 665.19,494.164 665.19,494C665.19,492.707 665.69,491.568 666.42,491.158L743.02,448.158C743.573,447.848 744.181,447.999 744.655,448.562C745.129,449.126 745.41,450.033 745.41,451L745.41,491L1126,491C1127,491 1127.81,492.344 1127.81,494C1127.81,495.656 1127,497 1126,497Z" style="fill:rgb(143,143,143);"/>
                </g>
                <g transform="matrix(1.12187,0,0,0.676662,-31.2599,-22.1448)">
                    <path d="M1126,497L667,497C666.108,497 665.357,495.924 665.214,494.488C665.199,494.326 665.19,494.164 665.19,494C665.19,492.707 665.69,491.568 666.42,491.158L743.02,448.158C743.573,447.848 744.181,447.999 744.655,448.562C745.129,449.126 745.41,450.033 745.41,451L745.41,491L1126,491C1127,491 1127.81,492.344 1127.81,494C1127.81,495.656 1127,497 1126,497Z" style="fill:rgb(143,143,143);"/>
                </g>
            </g>
            <g transform="matrix(0.5,-0.866025,-0.866025,-0.5,1363.22,2220.46)">
                <g transform="matrix(-1.12187,1.3739e-16,-8.28672e-17,-0.676662,1980.26,662.638)">
                    <path d="M1126,497L667,497C666.108,497 665.357,495.924 665.214,494.488C665.199,494.326 665.19,494.164 665.19,494C665.19,492.707 665.69,491.568 666.42,491.158L743.02,448.158C743.573,447.848 744.181,447.999 744.655,448.562C745.129,449.126 745.41,450.033 745.41,451L745.41,491L1126,491C1127,491 1127.81,492.344 1127.81,494C1127.81,495.656 1127,497 1126,497Z" style="fill:rgb(143,143,143);"/>
                </g>
                <g transform="matrix(1.12187,0,0,0.676662,-31.2599,-22.1448)">
                    <path d="M1126,497L667,497C666.108,497 665.357,495.924 665.214,494.488C665.199,494.326 665.19,494.164 665.19,494C665.19,492.707 665.69,491.568 666.42,491.158L743.02,448.158C743.573,447.848 744.181,447.999 744.655,448.562C745.129,449.126 745.41,450.033 745.41,451L745.41,491L1126,491C1127,491 1127.81,492.344 1127.81,494C1127.81,495.656 1127,497 1126,497Z" style="fill:rgb(143,143,143);"/>
                </g>
            </g>
            <g transform="matrix(1,0,0,1,340.019,423.17)">
                <circle cx="789.5" cy="530.5" r="26.5" style="fill:rgb(0,18,255);"/>
            </g>
            <g transform="matrix(1,0,0,1,634.503,943)">
                <circle cx="789.5" cy="530.5" r="26.5" style="fill:rgb(0,18,255);"/>
            </g>
            <g transform="matrix(1,0,0,1,939.837,423.17)">
                <circle cx="789.5" cy="530.5" r="26.5" style="fill:white;stroke:rgb(212,0,2);stroke-width:2px;stroke-linecap:butt;stroke-miterlimit:2;"/>
            </g>
            <g transform="matrix(1,0,0,1,650.323,-97.4861)">
                <circle cx="789.5" cy="530.5" r="26.5" style="fill:rgb(0,18,255);"/>
            </g>
            <g transform="matrix(1,0,0,1,1247.75,-95.3537)">
                <circle cx="789.5" cy="530.5" r="26.5" style="fill:rgb(0,18,255);"/>
            </g>
            <g transform="matrix(1,0,0,1,1544,423.17)">
                <circle cx="789.5" cy="530.5" r="26.5" style="fill:rgb(0,18,255);"/>
            </g>
            <g transform="matrix(1,0,0,1,1237.37,946.653)">
                <circle cx="789.5" cy="530.5" r="26.5" style="fill:rgb(0,18,255);"/>
            </g>
            <g transform="matrix(1,0,0,1,1696.5,1008.1)">
                <g transform="matrix(28,0,0,28,67.2,0)">
                </g>
                <text x="0px" y="0px" style="font-family:'JetBrainsMono-Regular', 'JetBrains Mono', monospace;font-size:28px;fill:none;stroke:white;stroke-width:8px;stroke-linecap:butt;stroke-miterlimit:2;">self</text>
                <g transform="matrix(28,0,0,28,67.2,0)">
                </g>
                <text x="0px" y="0px" style="font-family:'JetBrainsMono-Regular', 'JetBrains Mono', monospace;font-size:28px;fill:rgb(212,0,2);">self</text>
            </g>
        </g>
        <g id="neighbors_halfedges">
            <g transform="matrix(0.914724,0,0,0.914724,147.517,81.3254)">
                <g transform="matrix(1.09323,0,0,1.09323,-104.361,-31.9862)">
                    <g transform="matrix(0.89973,-0.436446,0.436446,0.89973,-32.767,662.955)">
                        <text x="1426.45px" y="402.79px" style="font-family:'JetBrainsMono-Regular', 'JetBrains Mono', monospace;font-size:28px;fill:none;stroke:white;stroke-width:8px;stroke-linecap:butt;stroke-miterlimit:2;">[</text>
                    </g>
                    <g transform="matrix(0.911917,-0.410375,0.410375,0.911917,-35.3122,626.402)">
                        <text x="1441.53px" y="395.46px" style="font-family:'JetBrainsMono-Regular', 'JetBrains Mono', monospace;font-size:28px;fill:none;stroke:white;stroke-width:8px;stroke-linecap:butt;stroke-miterlimit:2;">o</text>
                    </g>
                    <g transform="matrix(0.923937,-0.382545,0.382545,0.923937,-37.8231,586.879)">
                        <text x="1456.89px" y="388.552px" style="font-family:'JetBrainsMono-Regular', 'JetBrains Mono', monospace;font-size:28px;fill:none;stroke:white;stroke-width:8px;stroke-linecap:butt;stroke-miterlimit:2;">u</text>
                    </g>
                    <g transform="matrix(0.934874,-0.354979,0.354979,0.934874,-39.7558,547.562)">
                        <text x="1472.41px" y="382.129px" style="font-family:'JetBrainsMono-Regular', 'JetBrains Mono', monospace;font-size:28px;fill:none;stroke:white;stroke-width:8px;stroke-linecap:butt;stroke-miterlimit:2;">t</text>
                    </g>
                    <g transform="matrix(0.945339,-0.326088,0.326088,0.945339,-41.3312,505.806)">
                        <text x="1488.08px" y="376.188px" style="font-family:'JetBrainsMono-Regular', 'JetBrains Mono', monospace;font-size:28px;fill:none;stroke:white;stroke-width:8px;stroke-linecap:butt;stroke-miterlimit:2;">g</text>
                    </g>
                    <g transform="matrix(0.954831,-0.29715,0.29715,0.954831,-42.2238,463.646)">
                        <text x="1503.96px" y="370.71px" style="font-family:'JetBrainsMono-Regular', 'JetBrains Mono', monospace;font-size:28px;fill:none;stroke:white;stroke-width:8px;stroke-linecap:butt;stroke-miterlimit:2;">o</text>
                    </g>
                    <g transform="matrix(0.963674,-0.267081,0.267081,0.963674,-42.4585,419.247)">
                        <text x="1520px" y="365.709px" style="font-family:'JetBrainsMono-Regular', 'JetBrains Mono', monospace;font-size:28px;fill:none;stroke:white;stroke-width:8px;stroke-linecap:butt;stroke-miterlimit:2;">i</text>
                    </g>
                    <g transform="matrix(0.97111,-0.23863,0.23863,0.97111,-41.8146,377.022)">
                        <text x="1536.21px" y="361.207px" style="font-family:'JetBrainsMono-Regular', 'JetBrains Mono', monospace;font-size:28px;fill:none;stroke:white;stroke-width:8px;stroke-linecap:butt;stroke-miterlimit:2;">n</text>
                    </g>
                    <g transform="matrix(0.97785,-0.209308,0.209308,0.97785,-40.3772,332.864)">
                        <text x="1552.51px" y="357.203px" style="font-family:'JetBrainsMono-Regular', 'JetBrains Mono', monospace;font-size:28px;fill:none;stroke:white;stroke-width:8px;stroke-linecap:butt;stroke-miterlimit:2;">g</text>
                    </g>
                    <g transform="matrix(0.983773,-0.179417,0.179417,0.983773,-37.9963,287.241)">
                        <text x="1568.98px" y="353.679px" style="font-family:'JetBrainsMono-Regular', 'JetBrains Mono', monospace;font-size:28px;fill:none;stroke:white;stroke-width:8px;stroke-linecap:butt;stroke-miterlimit:2;">/</text>
                    </g>
                    <g transform="matrix(0.988884,-0.148691,0.148691,0.988884,-34.5156,239.643)">
                        <text x="1585.48px" y="350.662px" style="font-family:'JetBrainsMono-Regular', 'JetBrains Mono', monospace;font-size:28px;fill:none;stroke:white;stroke-width:8px;stroke-linecap:butt;stroke-miterlimit:2;">i</text>
                    </g>
                    <g transform="matrix(0.992798,-0.119798,0.119798,0.992798,-30.1707,194.433)">
                        <text x="1602.08px" y="348.156px" style="font-family:'JetBrainsMono-Regular', 'JetBrains Mono', monospace;font-size:28px;fill:none;stroke:white;stroke-width:8px;stroke-linecap:butt;stroke-miterlimit:2;">n</text>
                    </g>
                    <g transform="matrix(0.995955,-0.0898587,0.0898587,0.995955,-24.5549,146.862)">
                        <text x="1618.79px" y="346.139px" style="font-family:'JetBrainsMono-Regular', 'JetBrains Mono', monospace;font-size:28px;fill:none;stroke:white;stroke-width:8px;stroke-linecap:butt;stroke-miterlimit:2;">c</text>
                    </g>
                    <g transform="matrix(0.998193,-0.0600828,0.0600828,0.998193,-17.7515,98.8902)">
                        <text x="1635.54px" y="344.628px" style="font-family:'JetBrainsMono-Regular', 'JetBrains Mono', monospace;font-size:28px;fill:none;stroke:white;stroke-width:8px;stroke-linecap:butt;stroke-miterlimit:2;">o</text>
                    </g>
                    <g transform="matrix(0.999537,-0.0304135,0.0304135,0.999537,-9.68638,50.4104)">
                        <text x="1652.27px" y="343.621px" style="font-family:'JetBrainsMono-Regular', 'JetBrains Mono', monospace;font-size:28px;fill:none;stroke:white;stroke-width:8px;stroke-linecap:butt;stroke-miterlimit:2;">m</text>
                    </g>
                    <g transform="matrix(1,0.000172339,-0.000172339,1,0.0591545,-0.287641)">
                        <text x="1669.07px" y="343.101px" style="font-family:'JetBrainsMono-Regular', 'JetBrains Mono', monospace;font-size:28px;fill:none;stroke:white;stroke-width:8px;stroke-linecap:butt;stroke-miterlimit:2;">i</text>
                    </g>
                    <g transform="matrix(0.999602,0.0282249,-0.0282249,0.999602,10.3555,-47.4471)">
                        <text x="1685.88px" y="343.096px" style="font-family:'JetBrainsMono-Regular', 'JetBrains Mono', monospace;font-size:28px;fill:none;stroke:white;stroke-width:8px;stroke-linecap:butt;stroke-miterlimit:2;">n</text>
                    </g>
                    <g transform="matrix(0.998361,0.0572234,-0.0572234,0.998361,22.4503,-96.8698)">
                        <text x="1702.67px" y="343.57px" style="font-family:'JetBrainsMono-Regular', 'JetBrains Mono', monospace;font-size:28px;fill:none;stroke:white;stroke-width:8px;stroke-linecap:butt;stroke-miterlimit:2;">g</text>
                    </g>
                    <g transform="matrix(0.996346,0.0854033,-0.0854033,0.996346,35.7074,-145.59)">
                        <text x="1719.47px" y="344.545px" style="font-family:'JetBrainsMono-Regular', 'JetBrains Mono', monospace;font-size:28px;fill:none;stroke:white;stroke-width:8px;stroke-linecap:butt;stroke-miterlimit:2;">]</text>
                    </g>
                    <g transform="matrix(0.99323,0.116169,-0.116169,0.99323,51.9474,-199.345)">
                        <text x="1736.16px" y="345.986px" style="font-family:'JetBrainsMono-Regular', 'JetBrains Mono', monospace;font-size:28px;fill:none;stroke:white;stroke-width:8px;stroke-linecap:butt;stroke-miterlimit:2;">_</text>
                    </g>
                    <g transform="matrix(0.989311,0.14582,-0.14582,0.989311,69.472,-251.881)">
                        <text x="1752.85px" y="347.937px" style="font-family:'JetBrainsMono-Regular', 'JetBrains Mono', monospace;font-size:28px;fill:none;stroke:white;stroke-width:8px;stroke-linecap:butt;stroke-miterlimit:2;">h</text>
                    </g>
                    <g transform="matrix(0.984586,0.174902,-0.174902,0.984586,88.5611,-304.091)">
                        <text x="1769.52px" y="350.399px" style="font-family:'JetBrainsMono-Regular', 'JetBrains Mono', monospace;font-size:28px;fill:none;stroke:white;stroke-width:8px;stroke-linecap:butt;stroke-miterlimit:2;">a</text>
                    </g>
                    <g transform="matrix(0.978832,0.204664,-0.204664,0.978832,110.123,-358.057)">
                        <text x="1786.04px" y="353.343px" style="font-family:'JetBrainsMono-Regular', 'JetBrains Mono', monospace;font-size:28px;fill:none;stroke:white;stroke-width:8px;stroke-linecap:butt;stroke-miterlimit:2;">l</text>
                    </g>
                    <g transform="matrix(0.972078,0.234656,-0.234656,0.972078,134.05,-413.001)">
                        <text x="1802.48px" y="356.787px" style="font-family:'JetBrainsMono-Regular', 'JetBrains Mono', monospace;font-size:28px;fill:none;stroke:white;stroke-width:8px;stroke-linecap:butt;stroke-miterlimit:2;">f</text>
                    </g>
                    <g transform="matrix(0.964436,0.264315,-0.264315,0.964436,160.03,-467.912)">
                        <text x="1818.81px" y="360.73px" style="font-family:'JetBrainsMono-Regular', 'JetBrains Mono', monospace;font-size:28px;fill:none;stroke:white;stroke-width:8px;stroke-linecap:butt;stroke-miterlimit:2;">e</text>
                    </g>
                    <g transform="matrix(0.955945,0.293546,-0.293546,0.955945,188.038,-522.576)">
                        <text x="1835.03px" y="365.175px" style="font-family:'JetBrainsMono-Regular', 'JetBrains Mono', monospace;font-size:28px;fill:none;stroke:white;stroke-width:8px;stroke-linecap:butt;stroke-miterlimit:2;">d</text>
                    </g>
                    <g transform="matrix(0.946497,0.322711,-0.322711,0.946497,218.471,-577.553)">
                        <text x="1851.05px" y="370.098px" style="font-family:'JetBrainsMono-Regular', 'JetBrains Mono', monospace;font-size:28px;fill:none;stroke:white;stroke-width:8px;stroke-linecap:butt;stroke-miterlimit:2;">g</text>
                    </g>
                    <g transform="matrix(0.936087,0.351768,-0.351768,0.936087,251.419,-632.734)">
                        <text x="1866.96px" y="375.522px" style="font-family:'JetBrainsMono-Regular', 'JetBrains Mono', monospace;font-size:28px;fill:none;stroke:white;stroke-width:8px;stroke-linecap:butt;stroke-miterlimit:2;">e</text>
                    </g>
                    <g transform="matrix(0.924711,0.38067,-0.38067,0.924711,286.95,-687.973)">
                        <text x="1882.71px" y="381.441px" style="font-family:'JetBrainsMono-Regular', 'JetBrains Mono', monospace;font-size:28px;fill:none;stroke:white;stroke-width:8px;stroke-linecap:butt;stroke-miterlimit:2;">s</text>
                    </g>
                    <g transform="matrix(0.911945,0.410313,-0.410313,0.911945,326.277,-744.727)">
                        <text x="1898.25px" y="387.818px" style="font-family:'JetBrainsMono-Regular', 'JetBrains Mono', monospace;font-size:28px;fill:none;stroke:white;stroke-width:8px;stroke-linecap:butt;stroke-miterlimit:2;">(</text>
                    </g>
                    <g transform="matrix(0.900498,0.43486,-0.43486,0.900498,362.042,-792.852)">
                        <text x="1913.55px" y="394.701px" style="font-family:'JetBrainsMono-Regular', 'JetBrains Mono', monospace;font-size:28px;fill:none;stroke:white;stroke-width:8px;stroke-linecap:butt;stroke-miterlimit:2;">)</text>
                    </g>
                </g>
                <g transform="matrix(1.09323,0,0,1.09323,-104.361,-31.9862)">
                    <g transform="matrix(0.89973,-0.436446,0.436446,0.89973,-32.767,662.955)">
                        <text x="1426.45px" y="402.79px" style="font-family:'JetBrainsMono-Regular', 'JetBrains Mono', monospace;font-size:28px;fill:rgb(143,143,143);">[</text>
                    </g>
                    <g transform="matrix(0.911917,-0.410375,0.410375,0.911917,-35.3122,626.402)">
                        <text x="1441.53px" y="395.46px" style="font-family:'JetBrainsMono-Regular', 'JetBrains Mono', monospace;font-size:28px;fill:rgb(143,143,143);">o</text>
                    </g>
                    <g transform="matrix(0.923937,-0.382545,0.382545,0.923937,-37.8231,586.879)">
                        <text x="1456.89px" y="388.552px" style="font-family:'JetBrainsMono-Regular', 'JetBrains Mono', monospace;font-size:28px;fill:rgb(143,143,143);">u</text>
                    </g>
                    <g transform="matrix(0.934874,-0.354979,0.354979,0.934874,-39.7558,547.562)">
                        <text x="1472.41px" y="382.129px" style="font-family:'JetBrainsMono-Regular', 'JetBrains Mono', monospace;font-size:28px;fill:rgb(143,143,143);">t</text>
                    </g>
                    <g transform="matrix(0.945339,-0.326088,0.326088,0.945339,-41.3312,505.806)">
                        <text x="1488.08px" y="376.188px" style="font-family:'JetBrainsMono-Regular', 'JetBrains Mono', monospace;font-size:28px;fill:rgb(143,143,143);">g</text>
                    </g>
                    <g transform="matrix(0.954831,-0.29715,0.29715,0.954831,-42.2238,463.646)">
                        <text x="1503.96px" y="370.71px" style="font-family:'JetBrainsMono-Regular', 'JetBrains Mono', monospace;font-size:28px;fill:rgb(143,143,143);">o</text>
                    </g>
                    <g transform="matrix(0.963674,-0.267081,0.267081,0.963674,-42.4585,419.247)">
                        <text x="1520px" y="365.709px" style="font-family:'JetBrainsMono-Regular', 'JetBrains Mono', monospace;font-size:28px;fill:rgb(143,143,143);">i</text>
                    </g>
                    <g transform="matrix(0.97111,-0.23863,0.23863,0.97111,-41.8146,377.022)">
                        <text x="1536.21px" y="361.207px" style="font-family:'JetBrainsMono-Regular', 'JetBrains Mono', monospace;font-size:28px;fill:rgb(143,143,143);">n</text>
                    </g>
                    <g transform="matrix(0.97785,-0.209308,0.209308,0.97785,-40.3772,332.864)">
                        <text x="1552.51px" y="357.203px" style="font-family:'JetBrainsMono-Regular', 'JetBrains Mono', monospace;font-size:28px;fill:rgb(143,143,143);">g</text>
                    </g>
                    <g transform="matrix(0.983773,-0.179417,0.179417,0.983773,-37.9963,287.241)">
                        <text x="1568.98px" y="353.679px" style="font-family:'JetBrainsMono-Regular', 'JetBrains Mono', monospace;font-size:28px;fill:rgb(143,143,143);">/</text>
                    </g>
                    <g transform="matrix(0.988884,-0.148691,0.148691,0.988884,-34.5156,239.643)">
                        <text x="1585.48px" y="350.662px" style="font-family:'JetBrainsMono-Regular', 'JetBrains Mono', monospace;font-size:28px;fill:rgb(143,143,143);">i</text>
                    </g>
                    <g transform="matrix(0.992798,-0.119798,0.119798,0.992798,-30.1707,194.433)">
                        <text x="1602.08px" y="348.156px" style="font-family:'JetBrainsMono-Regular', 'JetBrains Mono', monospace;font-size:28px;fill:rgb(143,143,143);">n</text>
                    </g>
                    <g transform="matrix(0.995955,-0.0898587,0.0898587,0.995955,-24.5549,146.862)">
                        <text x="1618.79px" y="346.139px" style="font-family:'JetBrainsMono-Regular', 'JetBrains Mono', monospace;font-size:28px;fill:rgb(143,143,143);">c</text>
                    </g>
                    <g transform="matrix(0.998193,-0.0600828,0.0600828,0.998193,-17.7515,98.8902)">
                        <text x="1635.54px" y="344.628px" style="font-family:'JetBrainsMono-Regular', 'JetBrains Mono', monospace;font-size:28px;fill:rgb(143,143,143);">o</text>
                    </g>
                    <g transform="matrix(0.999537,-0.0304135,0.0304135,0.999537,-9.68638,50.4104)">
                        <text x="1652.27px" y="343.621px" style="font-family:'JetBrainsMono-Regular', 'JetBrains Mono', monospace;font-size:28px;fill:rgb(143,143,143);">m</text>
                    </g>
                    <g transform="matrix(1,0.000172339,-0.000172339,1,0.0591545,-0.287641)">
                        <text x="1669.07px" y="343.101px" style="font-family:'JetBrainsMono-Regular', 'JetBrains Mono', monospace;font-size:28px;fill:rgb(143,143,143);">i</text>
                    </g>
                    <g transform="matrix(0.999602,0.0282249,-0.0282249,0.999602,10.3555,-47.4471)">
                        <text x="1685.88px" y="343.096px" style="font-family:'JetBrainsMono-Regular', 'JetBrains Mono', monospace;font-size:28px;fill:rgb(143,143,143);">n</text>
                    </g>
                    <g transform="matrix(0.998361,0.0572234,-0.0572234,0.998361,22.4503,-96.8698)">
                        <text x="1702.67px" y="343.57px" style="font-family:'JetBrainsMono-Regular', 'JetBrains Mono', monospace;font-size:28px;fill:rgb(143,143,143);">g</text>
                    </g>
                    <g transform="matrix(0.996346,0.0854033,-0.0854033,0.996346,35.7074,-145.59)">
                        <text x="1719.47px" y="344.545px" style="font-family:'JetBrainsMono-Regular', 'JetBrains Mono', monospace;font-size:28px;fill:rgb(143,143,143);">]</text>
                    </g>
                    <g transform="matrix(0.99323,0.116169,-0.116169,0.99323,51.9474,-199.345)">
                        <text x="1736.16px" y="345.986px" style="font-family:'JetBrainsMono-Regular', 'JetBrains Mono', monospace;font-size:28px;fill:rgb(143,143,143);">_</text>
                    </g>
                    <g transform="matrix(0.989311,0.14582,-0.14582,0.989311,69.472,-251.881)">
                        <text x="1752.85px" y="347.937px" style="font-family:'JetBrainsMono-Regular', 'JetBrains Mono', monospace;font-size:28px;fill:rgb(143,143,143);">h</text>
                    </g>
                    <g transform="matrix(0.984586,0.174902,-0.174902,0.984586,88.5611,-304.091)">
                        <text x="1769.52px" y="350.399px" style="font-family:'JetBrainsMono-Regular', 'JetBrains Mono', monospace;font-size:28px;fill:rgb(143,143,143);">a</text>
                    </g>
                    <g transform="matrix(0.978832,0.204664,-0.204664,0.978832,110.123,-358.057)">
                        <text x="1786.04px" y="353.343px" style="font-family:'JetBrainsMono-Regular', 'JetBrains Mono', monospace;font-size:28px;fill:rgb(143,143,143);">l</text>
                    </g>
                    <g transform="matrix(0.972078,0.234656,-0.234656,0.972078,134.05,-413.001)">
                        <text x="1802.48px" y="356.787px" style="font-family:'JetBrainsMono-Regular', 'JetBrains Mono', monospace;font-size:28px;fill:rgb(143,143,143);">f</text>
                    </g>
                    <g transform="matrix(0.964436,0.264315,-0.264315,0.964436,160.03,-467.912)">
                        <text x="1818.81px" y="360.73px" style="font-family:'JetBrainsMono-Regular', 'JetBrains Mono', monospace;font-size:28px;fill:rgb(143,143,143);">e</text>
                    </g>
                    <g transform="matrix(0.955945,0.293546,-0.293546,0.955945,188.038,-522.576)">
                        <text x="1835.03px" y="365.175px" style="font-family:'JetBrainsMono-Regular', 'JetBrains Mono', monospace;font-size:28px;fill:rgb(143,143,143);">d</text>
                    </g>
                    <g transform="matrix(0.946497,0.322711,-0.322711,0.946497,218.471,-577.553)">
                        <text x="1851.05px" y="370.098px" style="font-family:'JetBrainsMono-Regular', 'JetBrains Mono', monospace;font-size:28px;fill:rgb(143,143,143);">g</text>
                    </g>
                    <g transform="matrix(0.936087,0.351768,-0.351768,0.936087,251.419,-632.734)">
                        <text x="1866.96px" y="375.522px" style="font-family:'JetBrainsMono-Regular', 'JetBrains Mono', monospace;font-size:28px;fill:rgb(143,143,143);">e</text>
                    </g>
                    <g transform="matrix(0.924711,0.38067,-0.38067,0.924711,286.95,-687.973)">
                        <text x="1882.71px" y="381.441px" style="font-family:'JetBrainsMono-Regular', 'JetBrains Mono', monospace;font-size:28px;fill:rgb(143,143,143);">s</text>
                    </g>
                    <g transform="matrix(0.911945,0.410313,-0.410313,0.911945,326.277,-744.727)">
                        <text x="1898.25px" y="387.818px" style="font-family:'JetBrainsMono-Regular', 'JetBrains Mono', monospace;font-size:28px;fill:rgb(143,143,143);">(</text>
                    </g>
                    <g transform="matrix(0.900498,0.43486,-0.43486,0.900498,362.042,-792.852)">
                        <text x="1913.55px" y="394.701px" style="font-family:'JetBrainsMono-Regular', 'JetBrains Mono', monospace;font-size:28px;fill:rgb(143,143,143);">)</text>
                    </g>
                </g>
            </g>
            <g transform="matrix(0.988426,0,0,0.988426,20.0235,11.0381)">
                <g transform="matrix(1.01171,0,0,1.01171,-13.1084,-4.01767)">
                    <g transform="matrix(0.989174,-0.146744,0.146744,0.989174,-32.4805,242.004)">
                        <text x="1623.99px" y="341.145px" style="font-family:'JetBrainsMono-Regular', 'JetBrains Mono', monospace;font-size:28px;fill:none;stroke:white;stroke-width:8px;stroke-linecap:butt;stroke-miterlimit:2;">n</text>
                    </g>
                    <g transform="matrix(0.992869,-0.119211,0.119211,0.992869,-28.6694,198.021)">
                        <text x="1640.85px" y="338.647px" style="font-family:'JetBrainsMono-Regular', 'JetBrains Mono', monospace;font-size:28px;fill:none;stroke:white;stroke-width:8px;stroke-linecap:butt;stroke-miterlimit:2;">e</text>
                    </g>
                    <g transform="matrix(0.995883,-0.0906458,0.0906458,0.995883,-23.687,151.66)">
                        <text x="1657.82px" y="336.606px" style="font-family:'JetBrainsMono-Regular', 'JetBrains Mono', monospace;font-size:28px;fill:none;stroke:white;stroke-width:8px;stroke-linecap:butt;stroke-miterlimit:2;">i</text>
                    </g>
                    <g transform="matrix(0.997948,-0.0640327,0.0640327,0.997948,-18.0173,107.932)">
                        <text x="1674.84px" y="335.054px" style="font-family:'JetBrainsMono-Regular', 'JetBrains Mono', monospace;font-size:28px;fill:none;stroke:white;stroke-width:8px;stroke-linecap:butt;stroke-miterlimit:2;">g</text>
                    </g>
                    <g transform="matrix(0.999339,-0.0363527,0.0363527,0.999339,-11.0223,61.7247)">
                        <text x="1691.87px" y="333.966px" style="font-family:'JetBrainsMono-Regular', 'JetBrains Mono', monospace;font-size:28px;fill:none;stroke:white;stroke-width:8px;stroke-linecap:butt;stroke-miterlimit:2;">h</text>
                    </g>
                    <g transform="matrix(0.999961,-0.00881984,0.00881984,0.999961,-2.8736,15.0854)">
                        <text x="1708.93px" y="333.347px" style="font-family:'JetBrainsMono-Regular', 'JetBrains Mono', monospace;font-size:28px;fill:none;stroke:white;stroke-width:8px;stroke-linecap:butt;stroke-miterlimit:2;">b</text>
                    </g>
                    <g transform="matrix(0.999839,0.0179547,-0.0179547,0.999839,6.26072,-30.9357)">
                        <text x="1725.99px" y="333.2px" style="font-family:'JetBrainsMono-Regular', 'JetBrains Mono', monospace;font-size:28px;fill:none;stroke:white;stroke-width:8px;stroke-linecap:butt;stroke-miterlimit:2;">o</text>
                    </g>
                    <g transform="matrix(0.998992,0.0448792,-0.0448792,0.998992,16.7239,-77.8906)">
                        <text x="1743.05px" y="333.51px" style="font-family:'JetBrainsMono-Regular', 'JetBrains Mono', monospace;font-size:28px;fill:none;stroke:white;stroke-width:8px;stroke-linecap:butt;stroke-miterlimit:2;">u</text>
                    </g>
                    <g transform="matrix(0.997335,0.072958,-0.072958,0.997335,29.0783,-127.522)">
                        <text x="1760.09px" y="334.27px" style="font-family:'JetBrainsMono-Regular', 'JetBrains Mono', monospace;font-size:28px;fill:none;stroke:white;stroke-width:8px;stroke-linecap:butt;stroke-miterlimit:2;">r</text>
                    </g>
                    <g transform="matrix(0.995044,0.0994366,-0.0994366,0.995044,42.1695,-175.049)">
                        <text x="1777.12px" y="335.509px" style="font-family:'JetBrainsMono-Regular', 'JetBrains Mono', monospace;font-size:28px;fill:none;stroke:white;stroke-width:8px;stroke-linecap:butt;stroke-miterlimit:2;">s</text>
                    </g>
                    <g transform="matrix(0.99175,0.128188,-0.128188,0.99175,58.027,-227.207)">
                        <text x="1794.15px" y="337.198px" style="font-family:'JetBrainsMono-Regular', 'JetBrains Mono', monospace;font-size:28px;fill:none;stroke:white;stroke-width:8px;stroke-linecap:butt;stroke-miterlimit:2;">(</text>
                    </g>
                    <g transform="matrix(0.988325,0.15236,-0.15236,0.988325,72.8519,-271.965)">
                        <text x="1811.02px" y="339.381px" style="font-family:'JetBrainsMono-Regular', 'JetBrains Mono', monospace;font-size:28px;fill:none;stroke:white;stroke-width:8px;stroke-linecap:butt;stroke-miterlimit:2;">)</text>
                    </g>
                </g>
                <g transform="matrix(1.01171,0,0,1.01171,-13.1084,-4.01767)">
                    <g transform="matrix(0.989174,-0.146744,0.146744,0.989174,-32.4805,242.004)">
                        <text x="1623.99px" y="341.145px" style="font-family:'JetBrainsMono-Regular', 'JetBrains Mono', monospace;font-size:28px;fill:rgb(0,18,255);">n</text>
                    </g>
                    <g transform="matrix(0.992869,-0.119211,0.119211,0.992869,-28.6694,198.021)">
                        <text x="1640.85px" y="338.647px" style="font-family:'JetBrainsMono-Regular', 'JetBrains Mono', monospace;font-size:28px;fill:rgb(0,18,255);">e</text>
                    </g>
                    <g transform="matrix(0.995883,-0.0906458,0.0906458,0.995883,-23.687,151.66)">
                        <text x="1657.82px" y="336.606px" style="font-family:'JetBrainsMono-Regular', 'JetBrains Mono', monospace;font-size:28px;fill:rgb(0,18,255);">i</text>
                    </g>
                    <g transform="matrix(0.997948,-0.0640327,0.0640327,0.997948,-18.0173,107.932)">
                        <text x="1674.84px" y="335.054px" style="font-family:'JetBrainsMono-Regular', 'JetBrains Mono', monospace;font-size:28px;fill:rgb(0,18,255);">g</text>
                    </g>
                    <g transform="matrix(0.999339,-0.0363527,0.0363527,0.999339,-11.0223,61.7247)">
                        <text x="1691.87px" y="333.966px" style="font-family:'JetBrainsMono-Regular', 'JetBrains Mono', monospace;font-size:28px;fill:rgb(0,18,255);">h</text>
                    </g>
                    <g transform="matrix(0.999961,-0.00881984,0.00881984,0.999961,-2.8736,15.0854)">
                        <text x="1708.93px" y="333.347px" style="font-family:'JetBrainsMono-Regular', 'JetBrains Mono', monospace;font-size:28px;fill:rgb(0,18,255);">b</text>
                    </g>
                    <g transform="matrix(0.999839,0.0179547,-0.0179547,0.999839,6.26072,-30.9357)">
                        <text x="1725.99px" y="333.2px" style="font-family:'JetBrainsMono-Regular', 'JetBrains Mono', monospace;font-size:28px;fill:rgb(0,18,255);">o</text>
                    </g>
                    <g transform="matrix(0.998992,0.0448792,-0.0448792,0.998992,16.7239,-77.8906)">
                        <text x="1743.05px" y="333.51px" style="font-family:'JetBrainsMono-Regular', 'JetBrains Mono', monospace;font-size:28px;fill:rgb(0,18,255);">u</text>
                    </g>
                    <g transform="matrix(0.997335,0.072958,-0.072958,0.997335,29.0783,-127.522)">
                        <text x="1760.09px" y="334.27px" style="font-family:'JetBrainsMono-Regular', 'JetBrains Mono', monospace;font-size:28px;fill:rgb(0,18,255);">r</text>
                    </g>
                    <g transform="matrix(0.995044,0.0994366,-0.0994366,0.995044,42.1695,-175.049)">
                        <text x="1777.12px" y="335.509px" style="font-family:'JetBrainsMono-Regular', 'JetBrains Mono', monospace;font-size:28px;fill:rgb(0,18,255);">s</text>
                    </g>
                    <g transform="matrix(0.99175,0.128188,-0.128188,0.99175,58.027,-227.207)">
                        <text x="1794.15px" y="337.198px" style="font-family:'JetBrainsMono-Regular', 'JetBrains Mono', monospace;font-size:28px;fill:rgb(0,18,255);">(</text>
                    </g>
                    <g transform="matrix(0.988325,0.15236,-0.15236,0.988325,72.8519,-271.965)">
                        <text x="1811.02px" y="339.381px" style="font-family:'JetBrainsMono-Regular', 'JetBrains Mono', monospace;font-size:28px;fill:rgb(0,18,255);">)</text>
                    </g>
                </g>
            </g>
            <g transform="matrix(0.988426,0,0,0.988426,20.0235,11.0381)">
                <g transform="matrix(1.01171,-0,-0,1.01171,1093.68,308.379)">
                    <path d="M899.314,87.659L911.183,103.91L891.06,103.655L899.314,87.659Z" style="fill:rgb(0,18,255);"/>
                    <path d="M1232.17,656.497C1222.08,982.374 954.988,1241.32 628.956,1241.32C295.875,1241.32 25.456,970.902 25.456,637.822C25.456,304.741 295.875,34.322 628.956,34.322C722.912,34.322 814.597,55.353 898.387,97.307" style="fill:none;stroke:rgb(0,18,255);stroke-width:2px;stroke-dasharray:10,10,0,0,0,0;"/>
                </g>
            </g>
        </g>
        <g id="faces">
            <g transform="matrix(0.552765,0,0,0.552765,773.653,426.514)">
                <g transform="matrix(1.80909,0,0,1.80909,-905.719,-277.6)">
                    <g transform="matrix(0.913361,-0.407151,0.407151,0.913361,-35.9088,564.38)">
                        <text x="1308.17px" y="366.565px" style="font-family:'JetBrainsMono-Regular', 'JetBrains Mono', monospace;font-size:28px;fill:none;stroke:white;stroke-width:8px;stroke-linecap:butt;stroke-miterlimit:2;">f</text>
                    </g>
                    <g transform="matrix(0.932291,-0.361709,0.361709,0.932291,-40.4083,503.233)">
                        <text x="1323.96px" y="359.549px" style="font-family:'JetBrainsMono-Regular', 'JetBrains Mono', monospace;font-size:28px;fill:none;stroke:white;stroke-width:8px;stroke-linecap:butt;stroke-miterlimit:2;">a</text>
                    </g>
                    <g transform="matrix(0.949602,-0.313459,0.313459,0.949602,-43.2121,437.868)">
                        <text x="1340.08px" y="353.316px" style="font-family:'JetBrainsMono-Regular', 'JetBrains Mono', monospace;font-size:28px;fill:none;stroke:white;stroke-width:8px;stroke-linecap:butt;stroke-miterlimit:2;">c</text>
                    </g>
                    <g transform="matrix(0.964088,-0.265581,0.265581,0.964088,-43.6842,372.755)">
                        <text x="1356.5px" y="347.909px" style="font-family:'JetBrainsMono-Regular', 'JetBrains Mono', monospace;font-size:28px;fill:none;stroke:white;stroke-width:8px;stroke-linecap:butt;stroke-miterlimit:2;">e</text>
                    </g>
                    <g transform="matrix(0.976309,-0.21638,0.21638,0.976309,-41.7535,305.27)">
                        <text x="1373.22px" y="343.313px" style="font-family:'JetBrainsMono-Regular', 'JetBrains Mono', monospace;font-size:28px;fill:none;stroke:white;stroke-width:8px;stroke-linecap:butt;stroke-miterlimit:2;">s</text>
                    </g>
                    <g transform="matrix(0.986325,-0.164811,0.164811,0.986325,-36.9523,233.75)">
                        <text x="1390.12px" y="339.552px" style="font-family:'JetBrainsMono-Regular', 'JetBrains Mono', monospace;font-size:28px;fill:none;stroke:white;stroke-width:8px;stroke-linecap:butt;stroke-miterlimit:2;">(</text>
                    </g>
                    <g transform="matrix(0.992632,-0.121168,0.121168,0.992632,-30.432,172.981)">
                        <text x="1407.13px" y="336.72px" style="font-family:'JetBrainsMono-Regular', 'JetBrains Mono', monospace;font-size:28px;fill:none;stroke:white;stroke-width:8px;stroke-linecap:butt;stroke-miterlimit:2;">)</text>
                    </g>
                </g>
                <g transform="matrix(1.80909,0,0,1.80909,-905.719,-277.6)">
                    <g transform="matrix(0.913361,-0.407151,0.407151,0.913361,-35.9088,564.38)">
                        <text x="1308.17px" y="366.565px" style="font-family:'JetBrainsMono-Regular', 'JetBrains Mono', monospace;font-size:28px;fill:rgb(255,0,245);">f</text>
                    </g>
                    <g transform="matrix(0.932291,-0.361709,0.361709,0.932291,-40.4083,503.233)">
                        <text x="1323.96px" y="359.549px" style="font-family:'JetBrainsMono-Regular', 'JetBrains Mono', monospace;font-size:28px;fill:rgb(255,0,245);">a</text>
                    </g>
                    <g transform="matrix(0.949602,-0.313459,0.313459,0.949602,-43.2121,437.868)">
                        <text x="1340.08px" y="353.316px" style="font-family:'JetBrainsMono-Regular', 'JetBrains Mono', monospace;font-size:28px;fill:rgb(255,0,245);">c</text>
                    </g>
                    <g transform="matrix(0.964088,-0.265581,0.265581,0.964088,-43.6842,372.755)">
                        <text x="1356.5px" y="347.909px" style="font-family:'JetBrainsMono-Regular', 'JetBrains Mono', monospace;font-size:28px;fill:rgb(255,0,245);">e</text>
                    </g>
                    <g transform="matrix(0.976309,-0.21638,0.21638,0.976309,-41.7535,305.27)">
                        <text x="1373.22px" y="343.313px" style="font-family:'JetBrainsMono-Regular', 'JetBrains Mono', monospace;font-size:28px;fill:rgb(255,0,245);">s</text>
                    </g>
                    <g transform="matrix(0.986325,-0.164811,0.164811,0.986325,-36.9523,233.75)">
                        <text x="1390.12px" y="339.552px" style="font-family:'JetBrainsMono-Regular', 'JetBrains Mono', monospace;font-size:28px;fill:rgb(255,0,245);">(</text>
                    </g>
                    <g transform="matrix(0.992632,-0.121168,0.121168,0.992632,-30.432,172.981)">
                        <text x="1407.13px" y="336.72px" style="font-family:'JetBrainsMono-Regular', 'JetBrains Mono', monospace;font-size:28px;fill:rgb(255,0,245);">)</text>
                    </g>
                </g>
            </g>
            <g transform="matrix(0.484925,-0.265324,0.265324,0.484925,637.975,950.183)">
                <g transform="matrix(1.58706,0.868352,-0.868352,1.58706,1285.75,-604.622)">
                    <path d="M605.731,291.7L624.026,300.086L606.341,309.69L605.731,291.7Z" style="fill:rgb(255,0,245);"/>
                    <path d="M929.833,485.025C1012.36,647.609 950.833,846.345 790.88,933.862C627.47,1023.27 422.212,963.192 332.803,799.781C243.394,636.371 303.474,431.113 466.884,341.704C511.116,317.502 559.521,303.363 609.634,300.573" style="fill:none;stroke:rgb(255,0,245);stroke-width:2px;stroke-dasharray:10,10,0,0,0,0;"/>
                </g>
            </g>
        </g>
        <g id="outgoing_halfedge" transform="matrix(1,0,0,1,703.087,469.831)">
            <g transform="matrix(1,0,0,1,1156.06,464.806)">
                <g transform="matrix(28,0,0,28,285.6,0)">
                </g>
                <text x="0px" y="0px" style="font-family:'JetBrainsMono-Regular', 'JetBrains Mono', monospace;font-size:28px;fill:none;stroke:white;stroke-width:8px;stroke-linecap:butt;stroke-miterlimit:2;">outgoing_halfedge</text>
                <g transform="matrix(28,0,0,28,285.6,0)">
                </g>
                <text x="0px" y="0px" style="font-family:'JetBrainsMono-Regular', 'JetBrains Mono', monospace;font-size:28px;fill:rgb(82,82,82);">outgoing_halfedge</text>
            </g>
            <g transform="matrix(1,0,0,1,238.568,345.249)">
                <g transform="matrix(1,-0,-0,1,159.39,-499.232)">
                    <path d="M752.236,609.429L745.516,628.398L734.372,611.641L752.236,609.429Z" style="fill:rgb(0,152,7);"/>
                    <path d="M637.508,611.428C639.233,573.993 674.207,557.561 692.209,560.39C707.822,562.843 736.381,584.195 743.746,614.108" style="fill:none;stroke:rgb(0,152,7);stroke-width:2px;stroke-dasharray:10,10,0,0,0,0;"/>
                </g>
            </g>
        </g>
        <g id="incoming_halfedge" transform="matrix(1,0,0,1,713.367,569.355)">
            <g transform="matrix(1,0,0,1,1206.29,422.434)">
                <g transform="matrix(28,0,0,28,319.2,0)">
                </g>
                <text x="0px" y="0px" style="font-family:'JetBrainsMono-Regular', 'JetBrains Mono', monospace;font-size:28px;fill:none;stroke:white;stroke-width:8px;stroke-linecap:butt;stroke-miterlimit:2;">incoming_halfedge()</text>
                <g transform="matrix(28,0,0,28,319.2,0)">
                </g>
                <text x="0px" y="0px" style="font-family:'JetBrainsMono-Regular', 'JetBrains Mono', monospace;font-size:28px;fill:rgb(143,143,143);">incoming_halfedge()</text>
            </g>
            <g transform="matrix(1,0,0,1,238.568,345.249)">
                <g transform="matrix(1,-0,-0,1,149.109,-598.756)">
                    <path d="M796.24,667.724L807.482,651.033L814.09,670.042L796.24,667.724Z" style="fill:rgb(0,152,7);"/>
                    <path d="M650.022,652.428C705.848,690.646 791.74,723.366 805.628,665.313" style="fill:none;stroke:rgb(0,152,7);stroke-width:2px;stroke-dasharray:10,10,0,0,0,0;"/>
                </g>
            </g>
        </g>
    </g>
</svg>
