<?xml version="1.0" encoding="UTF-8" standalone="no"?>
<!DOCTYPE svg PUBLIC "-//W3C//DTD SVG 1.1//EN" "http://www.w3.org/Graphics/SVG/1.1/DTD/svg11.dtd">
<svg width="100%" height="100%" viewBox="0 0 1257 1098" version="1.1" xmlns="http://www.w3.org/2000/svg" xmlns:xlink="http://www.w3.org/1999/xlink" xml:space="preserve" xmlns:serif="http://www.serif.com/" style="fill-rule:evenodd;clip-rule:evenodd;stroke-linecap:round;stroke-linejoin:round;stroke-miterlimit:1.5;">
    <g transform="matrix(1,0,0,1,-1103.02,-406.514)">
        <g id="elements">
            <g transform="matrix(-1.77196,2.17002e-16,-2.17002e-16,-1.77196,3018.74,2571.09)">
                <path d="M895,680L1011.91,882.5L778.087,882.5L895,680Z" style="fill:rgb(255,0,245);fill-opacity:0.09;stroke:rgb(255,0,213);stroke-width:1.13px;"/>
            </g>
            <g transform="matrix(-1.77196,2.17002e-16,-2.17002e-16,-1.77196,3327.78,2058.68)">
                <path d="M895,680L1011.91,882.5L778.087,882.5L895,680Z" style="fill:rgb(255,0,245);fill-opacity:0.09;stroke:rgb(255,0,213);stroke-width:1.13px;"/>
            </g>
            <g transform="matrix(-0.885979,1.53456,-1.53456,-0.885979,3492.6,132.712)">
                <path d="M895,680L1011.91,882.5L778.087,882.5L895,680Z" style="fill:rgb(255,0,245);fill-opacity:0.09;stroke:rgb(255,0,213);stroke-width:1.13px;"/>
            </g>
            <g transform="matrix(-0.885979,1.53456,-1.53456,-0.885979,4081.4,135.629)">
                <path d="M895,680L1011.91,882.5L778.087,882.5L895,680Z" style="fill:rgb(255,0,245);fill-opacity:0.09;stroke:rgb(255,0,213);stroke-width:1.13px;"/>
            </g>
            <g transform="matrix(-1.77196,-2.17002e-16,-2.17002e-16,1.77196,3312.18,-149.634)">
                <path d="M895,680L1011.91,882.5L778.087,882.5L895,680Z" style="fill:rgb(255,0,245);fill-opacity:0.09;stroke:rgb(255,0,213);stroke-width:1.13px;"/>
            </g>
            <g transform="matrix(-1.77196,2.17002e-16,-2.17002e-16,-1.77196,3609.11,2573.86)">
                <path d="M895,680L1011.91,882.5L778.087,882.5L895,680Z" style="fill:rgb(255,0,245);fill-opacity:0.09;stroke:rgb(255,0,213);stroke-width:1.13px;"/>
            </g>
            <g transform="matrix(-1,1.22465e-16,1.22465e-16,1,2403.93,633.295)">
                <g transform="matrix(-1.12187,1.3739e-16,-8.28672e-17,-0.676662,1980.26,662.638)">
                    <path d="M1126,497L667,497C666.108,497 665.357,495.924 665.214,494.488C665.199,494.326 665.19,494.164 665.19,494C665.19,492.707 665.69,491.568 666.42,491.158L743.02,448.158C743.573,447.848 744.181,447.999 744.655,448.562C745.129,449.126 745.41,450.033 745.41,451L745.41,491L1126,491C1127,491 1127.81,492.344 1127.81,494C1127.81,495.656 1127,497 1126,497Z" style="fill:rgb(143,143,143);"/>
                </g>
                <g transform="matrix(1.12187,0,0,0.676662,-31.2599,-22.1448)">
                    <path d="M1126,497L667,497C666.108,497 665.357,495.924 665.214,494.488C665.199,494.326 665.19,494.164 665.19,494C665.19,492.707 665.69,491.568 666.42,491.158L743.02,448.158C743.573,447.848 744.181,447.999 744.655,448.562C745.129,449.126 745.41,450.033 745.41,451L745.41,491L1126,491C1127,491 1127.81,492.344 1127.81,494C1127.81,495.656 1127,497 1126,497Z" style="fill:rgb(143,143,143);"/>
                </g>
            </g>
            <g transform="matrix(-0.5,-0.866025,-0.866025,0.5,2351.59,1374.98)">
                <g transform="matrix(-1.12187,1.3739e-16,-8.28672e-17,-0.676662,1980.26,662.638)">
                    <path d="M1126,497L667,497C666.108,497 665.357,495.924 665.214,494.488C665.199,494.326 665.19,494.164 665.19,494C665.19,492.707 665.69,491.568 666.42,491.158L743.02,448.158C743.573,447.848 744.181,447.999 744.655,448.562C745.129,449.126 745.41,450.033 745.41,451L745.41,491L1126,491C1127,491 1127.81,492.344 1127.81,494C1127.81,495.656 1127,497 1126,497Z" style="fill:rgb(143,143,143);"/>
                </g>
                <g transform="matrix(1.12187,0,0,0.676662,-31.2599,-22.1448)">
                    <path d="M1126,497L667,497C666.108,497 665.357,495.924 665.214,494.488C665.199,494.326 665.19,494.164 665.19,494C665.19,492.707 665.69,491.568 666.42,491.158L743.02,448.158C743.573,447.848 744.181,447.999 744.655,448.562C745.129,449.126 745.41,450.033 745.41,451L745.41,491L1126,491C1127,491 1127.81,492.344 1127.81,494C1127.81,495.656 1127,497 1126,497Z" style="fill:rgb(143,143,143);"/>
                </g>
            </g>
            <g transform="matrix(0.5,-0.866025,-0.866025,-0.5,1677.89,1704.07)">
                <g transform="matrix(-1.12187,1.3739e-16,-8.28672e-17,-0.676662,1980.26,662.638)">
                    <path d="M1126,497L667,497C666.108,497 665.357,495.924 665.214,494.488C665.199,494.326 665.19,494.164 665.19,494C665.19,492.707 665.69,491.568 666.42,491.158L743.02,448.158C743.573,447.848 744.181,447.999 744.655,448.562C745.129,449.126 745.41,450.033 745.41,451L745.41,491L1126,491C1127,491 1127.81,492.344 1127.81,494C1127.81,495.656 1127,497 1126,497Z" style="fill:rgb(143,143,143);"/>
                </g>
                <g transform="matrix(1.12187,0,0,0.676662,-31.2599,-22.1448)">
                    <path d="M1126,497L667,497C666.108,497 665.357,495.924 665.214,494.488C665.199,494.326 665.19,494.164 665.19,494C665.19,492.707 665.69,491.568 666.42,491.158L743.02,448.158C743.573,447.848 744.181,447.999 744.655,448.562C745.129,449.126 745.41,450.033 745.41,451L745.41,491L1126,491C1127,491 1127.81,492.344 1127.81,494C1127.81,495.656 1127,497 1126,497Z" style="fill:rgb(143,143,143);"/>
                </g>
            </g>
            <g transform="matrix(1,4.44089e-16,4.44089e-16,-1,1056.97,1273.92)">
                <g transform="matrix(-1.12187,1.3739e-16,-8.28672e-17,-0.676662,1980.26,662.638)">
                    <path d="M1126,497L667,497C666.108,497 665.357,495.924 665.214,494.488C665.199,494.326 665.19,494.164 665.19,494C665.19,492.707 665.69,491.568 666.42,491.158L743.02,448.158C743.573,447.848 744.181,447.999 744.655,448.562C745.129,449.126 745.41,450.033 745.41,451L745.41,491L1126,491C1127,491 1127.81,492.344 1127.81,494C1127.81,495.656 1127,497 1126,497Z" style="fill:rgb(82,82,82);"/>
                </g>
                <g transform="matrix(1.12187,0,0,0.676662,-31.2599,-22.1448)">
                    <path d="M1126,497L667,497C666.108,497 665.357,495.924 665.214,494.488C665.199,494.326 665.19,494.164 665.19,494C665.19,492.707 665.69,491.568 666.42,491.158L743.02,448.158C743.573,447.848 744.181,447.999 744.655,448.562C745.129,449.126 745.41,450.033 745.41,451L745.41,491L1126,491C1127,491 1127.81,492.344 1127.81,494C1127.81,495.656 1127,497 1126,497Z" style="fill:rgb(143,143,143);"/>
                </g>
            </g>
            <g transform="matrix(0.5,0.866025,0.866025,-0.5,1113.63,526.572)">
                <g transform="matrix(-1.12187,1.3739e-16,-8.28672e-17,-0.676662,1980.26,662.638)">
                    <path d="M1126,497L667,497C666.108,497 665.357,495.924 665.214,494.488C665.199,494.326 665.19,494.164 665.19,494C665.19,492.707 665.69,491.568 666.42,491.158L743.02,448.158C743.573,447.848 744.181,447.999 744.655,448.562C745.129,449.126 745.41,450.033 745.41,451L745.41,491L1126,491C1127,491 1127.81,492.344 1127.81,494C1127.81,495.656 1127,497 1126,497Z" style="fill:rgb(143,143,143);"/>
                </g>
                <g transform="matrix(1.12187,0,0,0.676662,-31.2599,-22.1448)">
                    <path d="M1126,497L667,497C666.108,497 665.357,495.924 665.214,494.488C665.199,494.326 665.19,494.164 665.19,494C665.19,492.707 665.69,491.568 666.42,491.158L743.02,448.158C743.573,447.848 744.181,447.999 744.655,448.562C745.129,449.126 745.41,450.033 745.41,451L745.41,491L1126,491C1127,491 1127.81,492.344 1127.81,494C1127.81,495.656 1127,497 1126,497Z" style="fill:rgb(143,143,143);"/>
                </g>
            </g>
            <g transform="matrix(0.5,-0.866025,-0.866025,-0.5,1363.22,2220.46)">
                <g transform="matrix(-1.12187,1.3739e-16,-8.28672e-17,-0.676662,1980.26,662.638)">
                    <path d="M1126,497L667,497C666.108,497 665.357,495.924 665.214,494.488C665.199,494.326 665.19,494.164 665.19,494C665.19,492.707 665.69,491.568 666.42,491.158L743.02,448.158C743.573,447.848 744.181,447.999 744.655,448.562C745.129,449.126 745.41,450.033 745.41,451L745.41,491L1126,491C1127,491 1127.81,492.344 1127.81,494C1127.81,495.656 1127,497 1126,497Z" style="fill:rgb(143,143,143);"/>
                </g>
                <g transform="matrix(1.12187,0,0,0.676662,-31.2599,-22.1448)">
                    <path d="M1126,497L667,497C666.108,497 665.357,495.924 665.214,494.488C665.199,494.326 665.19,494.164 665.19,494C665.19,492.707 665.69,491.568 666.42,491.158L743.02,448.158C743.573,447.848 744.181,447.999 744.655,448.562C745.129,449.126 745.41,450.033 745.41,451L745.41,491L1126,491C1127,491 1127.81,492.344 1127.81,494C1127.81,495.656 1127,497 1126,497Z" style="fill:rgb(143,143,143);"/>
                </g>
            </g>
            <g transform="matrix(1,0,0,1,340.019,423.17)">
                <circle cx="789.5" cy="530.5" r="26.5" style="fill:rgb(0,18,255);"/>
            </g>
            <g transform="matrix(1,0,0,1,634.503,943)">
                <circle cx="789.5" cy="530.5" r="26.5" style="fill:rgb(0,18,255);"/>
            </g>
            <g transform="matrix(1,0,0,1,939.837,423.17)">
                <circle cx="789.5" cy="530.5" r="26.5" style="fill:white;stroke:rgb(212,0,2);stroke-width:2px;stroke-linecap:butt;stroke-miterlimit:2;"/>
            </g>
            <g transform="matrix(1,0,0,1,650.323,-97.4861)">
                <circle cx="789.5" cy="530.5" r="26.5" style="fill:rgb(0,18,255);"/>
            </g>
            <g transform="matrix(1,0,0,1,1247.75,-95.3537)">
                <circle cx="789.5" cy="530.5" r="26.5" style="fill:rgb(0,18,255);"/>
            </g>
            <g transform="matrix(1,0,0,1,1544,423.17)">
                <circle cx="789.5" cy="530.5" r="26.5" style="fill:rgb(0,18,255);"/>
            </g>
            <g transform="matrix(1,0,0,1,1237.37,946.653)">
                <circle cx="789.5" cy="530.5" r="26.5" style="fill:rgb(0,18,255);"/>
            </g>
            <g transform="matrix(1,0,0,1,1696.5,1008.1)">
                <g transform="matrix(28,0,0,28,67.2,0)">
                </g>
                <text x="0px" y="0px" style="font-family:'JetBrainsMono-Regular', 'JetBrains Mono', monospace;font-size:28px;fill:none;stroke:white;stroke-width:8px;stroke-linecap:butt;stroke-miterlimit:2;">self</text>
                <g transform="matrix(28,0,0,28,67.2,0)">
                </g>
                <text x="0px" y="0px" style="font-family:'JetBrainsMono-Regular', 'JetBrains Mono', monospace;font-size:28px;fill:rgb(212,0,2);">self</text>
            </g>
        </g>
        <g id="faces">
            <g transform="matrix(0.552765,0,0,0.552765,773.653,426.514)">
                <g transform="matrix(1.80909,0,0,1.80909,-905.719,-277.6)">
                    <g transform="matrix(0.913361,-0.407151,0.407151,0.913361,-35.9088,564.38)">
                        <text x="1308.17px" y="366.565px" style="font-family:'JetBrainsMono-Regular', 'JetBrains Mono', monospace;font-size:28px;fill:none;stroke:white;stroke-width:8px;stroke-linecap:butt;stroke-miterlimit:2;">f</text>
                    </g>
                    <g transform="matrix(0.932291,-0.361709,0.361709,0.932291,-40.4083,503.233)">
                        <text x="1323.96px" y="359.549px" style="font-family:'JetBrainsMono-Regular', 'JetBrains Mono', monospace;font-size:28px;fill:none;stroke:white;stroke-width:8px;stroke-linecap:butt;stroke-miterlimit:2;">a</text>
                    </g>
                    <g transform="matrix(0.949602,-0.313459,0.313459,0.949602,-43.2121,437.868)">
                        <text x="1340.08px" y="353.316px" style="font-family:'JetBrainsMono-Regular', 'JetBrains Mono', monospace;font-size:28px;fill:none;stroke:white;stroke-width:8px;stroke-linecap:butt;stroke-miterlimit:2;">c</text>
                    </g>
                    <g transform="matrix(0.964088,-0.265581,0.265581,0.964088,-43.6842,372.755)">
                        <text x="1356.5px" y="347.909px" style="font-family:'JetBrainsMono-Regular', 'JetBrains Mono', monospace;font-size:28px;fill:none;stroke:white;stroke-width:8px;stroke-linecap:butt;stroke-miterlimit:2;">e</text>
                    </g>
                    <g transform="matrix(0.976309,-0.21638,0.21638,0.976309,-41.7535,305.27)">
                        <text x="1373.22px" y="343.313px" style="font-family:'JetBrainsMono-Regular', 'JetBrains Mono', monospace;font-size:28px;fill:none;stroke:white;stroke-width:8px;stroke-linecap:butt;stroke-miterlimit:2;">s</text>
                    </g>
                    <g transform="matrix(0.986325,-0.164811,0.164811,0.986325,-36.9523,233.75)">
                        <text x="1390.12px" y="339.552px" style="font-family:'JetBrainsMono-Regular', 'JetBrains Mono', monospace;font-size:28px;fill:none;stroke:white;stroke-width:8px;stroke-linecap:butt;stroke-miterlimit:2;">(</text>
                    </g>
                    <g transform="matrix(0.992632,-0.121168,0.121168,0.992632,-30.432,172.981)">
                        <text x="1407.13px" y="336.72px" style="font-family:'JetBrainsMono-Regular', 'JetBrains Mono', monospace;font-size:28px;fill:none;stroke:white;stroke-width:8px;stroke-linecap:butt;stroke-miterlimit:2;">)</text>
                    </g>
                </g>
                <g transform="matrix(1.80909,0,0,1.80909,-905.719,-277.6)">
                    <g transform="matrix(0.913361,-0.407151,0.407151,0.913361,-35.9088,564.38)">
                        <text x="1308.17px" y="366.565px" style="font-family:'JetBrainsMono-Regular', 'JetBrains Mono', monospace;font-size:28px;fill:rgb(255,0,245);">f</text>
                    </g>
                    <g transform="matrix(0.932291,-0.361709,0.361709,0.932291,-40.4083,503.233)">
                        <text x="1323.96px" y="359.549px" style="font-family:'JetBrainsMono-Regular', 'JetBrains Mono', monospace;font-size:28px;fill:rgb(255,0,245);">a</text>
                    </g>
                    <g transform="matrix(0.949602,-0.313459,0.313459,0.949602,-43.2121,437.868)">
                        <text x="1340.08px" y="353.316px" style="font-family:'JetBrainsMono-Regular', 'JetBrains Mono', monospace;font-size:28px;fill:rgb(255,0,245);">c</text>
                    </g>
                    <g transform="matrix(0.964088,-0.265581,0.265581,0.964088,-43.6842,372.755)">
                        <text x="1356.5px" y="347.909px" style="font-family:'JetBrainsMono-Regular', 'JetBrains Mono', monospace;font-size:28px;fill:rgb(255,0,245);">e</text>
                    </g>
                    <g transform="matrix(0.976309,-0.21638,0.21638,0.976309,-41.7535,305.27)">
                        <text x="1373.22px" y="343.313px" style="font-family:'JetBrainsMono-Regular', 'JetBrains Mono', monospace;font-size:28px;fill:rgb(255,0,245);">s</text>
                    </g>
                    <g transform="matrix(0.986325,-0.164811,0.164811,0.986325,-36.9523,233.75)">
                        <text x="1390.12px" y="339.552px" style="font-family:'JetBrainsMono-Regular', 'JetBrains Mono', monospace;font-size:28px;fill:rgb(255,0,245);">(</text>
                    </g>
                    <g transform="matrix(0.992632,-0.121168,0.121168,0.992632,-30.432,172.981)">
                        <text x="1407.13px" y="336.72px" style="font-family:'JetBrainsMono-Regular', 'JetBrains Mono', monospace;font-size:28px;fill:rgb(255,0,245);">)</text>
                    </g>
                </g>
            </g>
            <g transform="matrix(0.484925,-0.265324,0.265324,0.484925,637.975,950.183)">
                <g transform="matrix(1.58706,0.868352,-0.868352,1.58706,1210.15,-459.014)">
                    <path d="M603.756,201.034L622.051,209.42L604.366,219.024L603.756,201.034Z" style="fill:rgb(255,0,245);"/>
                    <path d="M927.858,394.359C1010.38,556.943 948.858,755.679 788.906,843.196C625.495,932.605 420.237,872.526 330.828,709.115C241.419,545.705 301.499,340.447 464.909,251.038C509.141,226.836 557.546,212.697 607.659,209.907" style="fill:none;stroke:rgb(255,0,245);stroke-width:2px;stroke-dasharray:10,10,0,0,0,0;"/>
                </g>
            </g>
        </g>
    </g>
</svg>
