<?xml version="1.0" encoding="UTF-8" standalone="no"?>
<!DOCTYPE svg PUBLIC "-//W3C//DTD SVG 1.1//EN" "http://www.w3.org/Graphics/SVG/1.1/DTD/svg11.dtd">
<svg width="100%" height="100%" viewBox="0 0 1259 1267" version="1.1" xmlns="http://www.w3.org/2000/svg" xmlns:xlink="http://www.w3.org/1999/xlink" xml:space="preserve" xmlns:serif="http://www.serif.com/" style="fill-rule:evenodd;clip-rule:evenodd;stroke-linecap:round;stroke-linejoin:round;stroke-miterlimit:1.5;">
    <g transform="matrix(1,0,0,1,-1101.04,-315.848)">
        <g id="elements">
            <g transform="matrix(-1.77196,2.17002e-16,-2.17002e-16,-1.77196,3018.74,2571.09)">
                <path d="M895,680L1011.91,882.5L778.087,882.5L895,680Z" style="fill:rgb(255,0,245);fill-opacity:0.09;stroke:rgb(255,0,213);stroke-width:1.13px;"/>
            </g>
            <g transform="matrix(-1.77196,2.17002e-16,-2.17002e-16,-1.77196,3327.78,2058.68)">
                <path d="M895,680L1011.91,882.5L778.087,882.5L895,680Z" style="fill:rgb(255,0,245);fill-opacity:0.09;stroke:rgb(255,0,213);stroke-width:1.13px;"/>
            </g>
            <g transform="matrix(-0.885979,1.53456,-1.53456,-0.885979,3492.6,132.712)">
                <path d="M895,680L1011.91,882.5L778.087,882.5L895,680Z" style="fill:rgb(255,0,245);fill-opacity:0.09;stroke:rgb(255,0,213);stroke-width:1.13px;"/>
            </g>
            <g transform="matrix(-0.885979,1.53456,-1.53456,-0.885979,4081.4,135.629)">
                <path d="M895,680L1011.91,882.5L778.087,882.5L895,680Z" style="fill:rgb(255,0,245);fill-opacity:0.09;stroke:rgb(255,0,213);stroke-width:1.13px;"/>
            </g>
            <g transform="matrix(-1.77196,-2.17002e-16,-2.17002e-16,1.77196,3312.18,-149.634)">
                <path d="M895,680L1011.91,882.5L778.087,882.5L895,680Z" style="fill:rgb(255,0,245);fill-opacity:0.09;stroke:rgb(255,0,213);stroke-width:1.13px;"/>
            </g>
            <g transform="matrix(-1.77196,2.17002e-16,-2.17002e-16,-1.77196,3609.11,2573.86)">
                <path d="M895,680L1011.91,882.5L778.087,882.5L895,680Z" style="fill:rgb(255,0,245);fill-opacity:0.09;stroke:rgb(255,0,213);stroke-width:1.13px;"/>
            </g>
            <g transform="matrix(-1,1.22465e-16,1.22465e-16,1,2403.93,633.295)">
                <g transform="matrix(-1.12187,1.3739e-16,-8.28672e-17,-0.676662,1980.26,662.638)">
                    <path d="M1126,497L667,497C666.108,497 665.357,495.924 665.214,494.488C665.199,494.326 665.19,494.164 665.19,494C665.19,492.707 665.69,491.568 666.42,491.158L743.02,448.158C743.573,447.848 744.181,447.999 744.655,448.562C745.129,449.126 745.41,450.033 745.41,451L745.41,491L1126,491C1127,491 1127.81,492.344 1127.81,494C1127.81,495.656 1127,497 1126,497Z" style="fill:rgb(143,143,143);"/>
                </g>
                <g transform="matrix(1.12187,0,0,0.676662,-31.2599,-22.1448)">
                    <path d="M1126,497L667,497C666.108,497 665.357,495.924 665.214,494.488C665.199,494.326 665.19,494.164 665.19,494C665.19,492.707 665.69,491.568 666.42,491.158L743.02,448.158C743.573,447.848 744.181,447.999 744.655,448.562C745.129,449.126 745.41,450.033 745.41,451L745.41,491L1126,491C1127,491 1127.81,492.344 1127.81,494C1127.81,495.656 1127,497 1126,497Z" style="fill:rgb(143,143,143);"/>
                </g>
            </g>
            <g transform="matrix(-0.5,-0.866025,-0.866025,0.5,2351.59,1374.98)">
                <g transform="matrix(-1.12187,1.3739e-16,-8.28672e-17,-0.676662,1980.26,662.638)">
                    <path d="M1126,497L667,497C666.108,497 665.357,495.924 665.214,494.488C665.199,494.326 665.19,494.164 665.19,494C665.19,492.707 665.69,491.568 666.42,491.158L743.02,448.158C743.573,447.848 744.181,447.999 744.655,448.562C745.129,449.126 745.41,450.033 745.41,451L745.41,491L1126,491C1127,491 1127.81,492.344 1127.81,494C1127.81,495.656 1127,497 1126,497Z" style="fill:rgb(143,143,143);"/>
                </g>
                <g transform="matrix(1.12187,0,0,0.676662,-31.2599,-22.1448)">
                    <path d="M1126,497L667,497C666.108,497 665.357,495.924 665.214,494.488C665.199,494.326 665.19,494.164 665.19,494C665.19,492.707 665.69,491.568 666.42,491.158L743.02,448.158C743.573,447.848 744.181,447.999 744.655,448.562C745.129,449.126 745.41,450.033 745.41,451L745.41,491L1126,491C1127,491 1127.81,492.344 1127.81,494C1127.81,495.656 1127,497 1126,497Z" style="fill:rgb(143,143,143);"/>
                </g>
            </g>
            <g transform="matrix(0.5,-0.866025,-0.866025,-0.5,1677.89,1704.07)">
                <g transform="matrix(-1.12187,1.3739e-16,-8.28672e-17,-0.676662,1980.26,662.638)">
                    <path d="M1126,497L667,497C666.108,497 665.357,495.924 665.214,494.488C665.199,494.326 665.19,494.164 665.19,494C665.19,492.707 665.69,491.568 666.42,491.158L743.02,448.158C743.573,447.848 744.181,447.999 744.655,448.562C745.129,449.126 745.41,450.033 745.41,451L745.41,491L1126,491C1127,491 1127.81,492.344 1127.81,494C1127.81,495.656 1127,497 1126,497Z" style="fill:rgb(143,143,143);"/>
                </g>
                <g transform="matrix(1.12187,0,0,0.676662,-31.2599,-22.1448)">
                    <path d="M1126,497L667,497C666.108,497 665.357,495.924 665.214,494.488C665.199,494.326 665.19,494.164 665.19,494C665.19,492.707 665.69,491.568 666.42,491.158L743.02,448.158C743.573,447.848 744.181,447.999 744.655,448.562C745.129,449.126 745.41,450.033 745.41,451L745.41,491L1126,491C1127,491 1127.81,492.344 1127.81,494C1127.81,495.656 1127,497 1126,497Z" style="fill:rgb(143,143,143);"/>
                </g>
            </g>
            <g transform="matrix(1,4.44089e-16,4.44089e-16,-1,1056.97,1273.92)">
                <g transform="matrix(-1.12187,1.3739e-16,-8.28672e-17,-0.676662,1980.26,662.638)">
                    <path d="M1126,497L667,497C666.108,497 665.357,495.924 665.214,494.488C665.199,494.326 665.19,494.164 665.19,494C665.19,492.707 665.69,491.568 666.42,491.158L743.02,448.158C743.573,447.848 744.181,447.999 744.655,448.562C745.129,449.126 745.41,450.033 745.41,451L745.41,491L1126,491C1127,491 1127.81,492.344 1127.81,494C1127.81,495.656 1127,497 1126,497Z" style="fill:rgb(82,82,82);"/>
                </g>
                <g transform="matrix(1.12187,0,0,0.676662,-31.2599,-22.1448)">
                    <path d="M1126,497L667,497C666.108,497 665.357,495.924 665.214,494.488C665.199,494.326 665.19,494.164 665.19,494C665.19,492.707 665.69,491.568 666.42,491.158L743.02,448.158C743.573,447.848 744.181,447.999 744.655,448.562C745.129,449.126 745.41,450.033 745.41,451L745.41,491L1126,491C1127,491 1127.81,492.344 1127.81,494C1127.81,495.656 1127,497 1126,497Z" style="fill:rgb(143,143,143);"/>
                </g>
            </g>
            <g transform="matrix(0.5,0.866025,0.866025,-0.5,1113.63,526.572)">
                <g transform="matrix(-1.12187,1.3739e-16,-8.28672e-17,-0.676662,1980.26,662.638)">
                    <path d="M1126,497L667,497C666.108,497 665.357,495.924 665.214,494.488C665.199,494.326 665.19,494.164 665.19,494C665.19,492.707 665.69,491.568 666.42,491.158L743.02,448.158C743.573,447.848 744.181,447.999 744.655,448.562C745.129,449.126 745.41,450.033 745.41,451L745.41,491L1126,491C1127,491 1127.81,492.344 1127.81,494C1127.81,495.656 1127,497 1126,497Z" style="fill:rgb(143,143,143);"/>
                </g>
                <g transform="matrix(1.12187,0,0,0.676662,-31.2599,-22.1448)">
                    <path d="M1126,497L667,497C666.108,497 665.357,495.924 665.214,494.488C665.199,494.326 665.19,494.164 665.19,494C665.19,492.707 665.69,491.568 666.42,491.158L743.02,448.158C743.573,447.848 744.181,447.999 744.655,448.562C745.129,449.126 745.41,450.033 745.41,451L745.41,491L1126,491C1127,491 1127.81,492.344 1127.81,494C1127.81,495.656 1127,497 1126,497Z" style="fill:rgb(143,143,143);"/>
                </g>
            </g>
            <g transform="matrix(0.5,-0.866025,-0.866025,-0.5,1363.22,2220.46)">
                <g transform="matrix(-1.12187,1.3739e-16,-8.28672e-17,-0.676662,1980.26,662.638)">
                    <path d="M1126,497L667,497C666.108,497 665.357,495.924 665.214,494.488C665.199,494.326 665.19,494.164 665.19,494C665.19,492.707 665.69,491.568 666.42,491.158L743.02,448.158C743.573,447.848 744.181,447.999 744.655,448.562C745.129,449.126 745.41,450.033 745.41,451L745.41,491L1126,491C1127,491 1127.81,492.344 1127.81,494C1127.81,495.656 1127,497 1126,497Z" style="fill:rgb(143,143,143);"/>
                </g>
                <g transform="matrix(1.12187,0,0,0.676662,-31.2599,-22.1448)">
                    <path d="M1126,497L667,497C666.108,497 665.357,495.924 665.214,494.488C665.199,494.326 665.19,494.164 665.19,494C665.19,492.707 665.69,491.568 666.42,491.158L743.02,448.158C743.573,447.848 744.181,447.999 744.655,448.562C745.129,449.126 745.41,450.033 745.41,451L745.41,491L1126,491C1127,491 1127.81,492.344 1127.81,494C1127.81,495.656 1127,497 1126,497Z" style="fill:rgb(143,143,143);"/>
                </g>
            </g>
            <g transform="matrix(1,0,0,1,340.019,423.17)">
                <circle cx="789.5" cy="530.5" r="26.5" style="fill:rgb(0,18,255);"/>
            </g>
            <g transform="matrix(1,0,0,1,634.503,943)">
                <circle cx="789.5" cy="530.5" r="26.5" style="fill:rgb(0,18,255);"/>
            </g>
            <g transform="matrix(1,0,0,1,939.837,423.17)">
                <circle cx="789.5" cy="530.5" r="26.5" style="fill:white;stroke:rgb(212,0,2);stroke-width:2px;stroke-linecap:butt;stroke-miterlimit:2;"/>
            </g>
            <g transform="matrix(1,0,0,1,650.323,-97.4861)">
                <circle cx="789.5" cy="530.5" r="26.5" style="fill:rgb(0,18,255);"/>
            </g>
            <g transform="matrix(1,0,0,1,1247.75,-95.3537)">
                <circle cx="789.5" cy="530.5" r="26.5" style="fill:rgb(0,18,255);"/>
            </g>
            <g transform="matrix(1,0,0,1,1544,423.17)">
                <circle cx="789.5" cy="530.5" r="26.5" style="fill:rgb(0,18,255);"/>
            </g>
            <g transform="matrix(1,0,0,1,1237.37,946.653)">
                <circle cx="789.5" cy="530.5" r="26.5" style="fill:rgb(0,18,255);"/>
            </g>
            <g transform="matrix(1,0,0,1,1696.5,1008.1)">
                <g transform="matrix(28,0,0,28,67.2,0)">
                </g>
                <text x="0px" y="0px" style="font-family:'JetBrainsMono-Regular', 'JetBrains Mono', monospace;font-size:28px;fill:none;stroke:white;stroke-width:8px;stroke-linecap:butt;stroke-miterlimit:2;">self</text>
                <g transform="matrix(28,0,0,28,67.2,0)">
                </g>
                <text x="0px" y="0px" style="font-family:'JetBrainsMono-Regular', 'JetBrains Mono', monospace;font-size:28px;fill:rgb(212,0,2);">self</text>
            </g>
        </g>
        <g id="neighbors_halfedges">
            <g transform="matrix(0.988426,0,0,0.988426,20.0235,11.0381)">
                <g transform="matrix(1.01171,0,0,1.01171,-13.1084,-4.01767)">
                    <g transform="matrix(0.989174,-0.146744,0.146744,0.989174,-32.4805,242.004)">
                        <text x="1623.99px" y="341.145px" style="font-family:'JetBrainsMono-Regular', 'JetBrains Mono', monospace;font-size:28px;fill:none;stroke:white;stroke-width:8px;stroke-linecap:butt;stroke-miterlimit:2;">n</text>
                    </g>
                    <g transform="matrix(0.992869,-0.119211,0.119211,0.992869,-28.6694,198.021)">
                        <text x="1640.85px" y="338.647px" style="font-family:'JetBrainsMono-Regular', 'JetBrains Mono', monospace;font-size:28px;fill:none;stroke:white;stroke-width:8px;stroke-linecap:butt;stroke-miterlimit:2;">e</text>
                    </g>
                    <g transform="matrix(0.995883,-0.0906458,0.0906458,0.995883,-23.687,151.66)">
                        <text x="1657.82px" y="336.606px" style="font-family:'JetBrainsMono-Regular', 'JetBrains Mono', monospace;font-size:28px;fill:none;stroke:white;stroke-width:8px;stroke-linecap:butt;stroke-miterlimit:2;">i</text>
                    </g>
                    <g transform="matrix(0.997948,-0.0640327,0.0640327,0.997948,-18.0173,107.932)">
                        <text x="1674.84px" y="335.054px" style="font-family:'JetBrainsMono-Regular', 'JetBrains Mono', monospace;font-size:28px;fill:none;stroke:white;stroke-width:8px;stroke-linecap:butt;stroke-miterlimit:2;">g</text>
                    </g>
                    <g transform="matrix(0.999339,-0.0363527,0.0363527,0.999339,-11.0223,61.7247)">
                        <text x="1691.87px" y="333.966px" style="font-family:'JetBrainsMono-Regular', 'JetBrains Mono', monospace;font-size:28px;fill:none;stroke:white;stroke-width:8px;stroke-linecap:butt;stroke-miterlimit:2;">h</text>
                    </g>
                    <g transform="matrix(0.999961,-0.00881984,0.00881984,0.999961,-2.8736,15.0854)">
                        <text x="1708.93px" y="333.347px" style="font-family:'JetBrainsMono-Regular', 'JetBrains Mono', monospace;font-size:28px;fill:none;stroke:white;stroke-width:8px;stroke-linecap:butt;stroke-miterlimit:2;">b</text>
                    </g>
                    <g transform="matrix(0.999839,0.0179547,-0.0179547,0.999839,6.26072,-30.9357)">
                        <text x="1725.99px" y="333.2px" style="font-family:'JetBrainsMono-Regular', 'JetBrains Mono', monospace;font-size:28px;fill:none;stroke:white;stroke-width:8px;stroke-linecap:butt;stroke-miterlimit:2;">o</text>
                    </g>
                    <g transform="matrix(0.998992,0.0448792,-0.0448792,0.998992,16.7239,-77.8906)">
                        <text x="1743.05px" y="333.51px" style="font-family:'JetBrainsMono-Regular', 'JetBrains Mono', monospace;font-size:28px;fill:none;stroke:white;stroke-width:8px;stroke-linecap:butt;stroke-miterlimit:2;">u</text>
                    </g>
                    <g transform="matrix(0.997335,0.072958,-0.072958,0.997335,29.0783,-127.522)">
                        <text x="1760.09px" y="334.27px" style="font-family:'JetBrainsMono-Regular', 'JetBrains Mono', monospace;font-size:28px;fill:none;stroke:white;stroke-width:8px;stroke-linecap:butt;stroke-miterlimit:2;">r</text>
                    </g>
                    <g transform="matrix(0.995044,0.0994366,-0.0994366,0.995044,42.1695,-175.049)">
                        <text x="1777.12px" y="335.509px" style="font-family:'JetBrainsMono-Regular', 'JetBrains Mono', monospace;font-size:28px;fill:none;stroke:white;stroke-width:8px;stroke-linecap:butt;stroke-miterlimit:2;">s</text>
                    </g>
                    <g transform="matrix(0.99175,0.128188,-0.128188,0.99175,58.027,-227.207)">
                        <text x="1794.15px" y="337.198px" style="font-family:'JetBrainsMono-Regular', 'JetBrains Mono', monospace;font-size:28px;fill:none;stroke:white;stroke-width:8px;stroke-linecap:butt;stroke-miterlimit:2;">(</text>
                    </g>
                    <g transform="matrix(0.988325,0.15236,-0.15236,0.988325,72.8519,-271.965)">
                        <text x="1811.02px" y="339.381px" style="font-family:'JetBrainsMono-Regular', 'JetBrains Mono', monospace;font-size:28px;fill:none;stroke:white;stroke-width:8px;stroke-linecap:butt;stroke-miterlimit:2;">)</text>
                    </g>
                </g>
                <g transform="matrix(1.01171,0,0,1.01171,-13.1084,-4.01767)">
                    <g transform="matrix(0.989174,-0.146744,0.146744,0.989174,-32.4805,242.004)">
                        <text x="1623.99px" y="341.145px" style="font-family:'JetBrainsMono-Regular', 'JetBrains Mono', monospace;font-size:28px;fill:rgb(0,18,255);">n</text>
                    </g>
                    <g transform="matrix(0.992869,-0.119211,0.119211,0.992869,-28.6694,198.021)">
                        <text x="1640.85px" y="338.647px" style="font-family:'JetBrainsMono-Regular', 'JetBrains Mono', monospace;font-size:28px;fill:rgb(0,18,255);">e</text>
                    </g>
                    <g transform="matrix(0.995883,-0.0906458,0.0906458,0.995883,-23.687,151.66)">
                        <text x="1657.82px" y="336.606px" style="font-family:'JetBrainsMono-Regular', 'JetBrains Mono', monospace;font-size:28px;fill:rgb(0,18,255);">i</text>
                    </g>
                    <g transform="matrix(0.997948,-0.0640327,0.0640327,0.997948,-18.0173,107.932)">
                        <text x="1674.84px" y="335.054px" style="font-family:'JetBrainsMono-Regular', 'JetBrains Mono', monospace;font-size:28px;fill:rgb(0,18,255);">g</text>
                    </g>
                    <g transform="matrix(0.999339,-0.0363527,0.0363527,0.999339,-11.0223,61.7247)">
                        <text x="1691.87px" y="333.966px" style="font-family:'JetBrainsMono-Regular', 'JetBrains Mono', monospace;font-size:28px;fill:rgb(0,18,255);">h</text>
                    </g>
                    <g transform="matrix(0.999961,-0.00881984,0.00881984,0.999961,-2.8736,15.0854)">
                        <text x="1708.93px" y="333.347px" style="font-family:'JetBrainsMono-Regular', 'JetBrains Mono', monospace;font-size:28px;fill:rgb(0,18,255);">b</text>
                    </g>
                    <g transform="matrix(0.999839,0.0179547,-0.0179547,0.999839,6.26072,-30.9357)">
                        <text x="1725.99px" y="333.2px" style="font-family:'JetBrainsMono-Regular', 'JetBrains Mono', monospace;font-size:28px;fill:rgb(0,18,255);">o</text>
                    </g>
                    <g transform="matrix(0.998992,0.0448792,-0.0448792,0.998992,16.7239,-77.8906)">
                        <text x="1743.05px" y="333.51px" style="font-family:'JetBrainsMono-Regular', 'JetBrains Mono', monospace;font-size:28px;fill:rgb(0,18,255);">u</text>
                    </g>
                    <g transform="matrix(0.997335,0.072958,-0.072958,0.997335,29.0783,-127.522)">
                        <text x="1760.09px" y="334.27px" style="font-family:'JetBrainsMono-Regular', 'JetBrains Mono', monospace;font-size:28px;fill:rgb(0,18,255);">r</text>
                    </g>
                    <g transform="matrix(0.995044,0.0994366,-0.0994366,0.995044,42.1695,-175.049)">
                        <text x="1777.12px" y="335.509px" style="font-family:'JetBrainsMono-Regular', 'JetBrains Mono', monospace;font-size:28px;fill:rgb(0,18,255);">s</text>
                    </g>
                    <g transform="matrix(0.99175,0.128188,-0.128188,0.99175,58.027,-227.207)">
                        <text x="1794.15px" y="337.198px" style="font-family:'JetBrainsMono-Regular', 'JetBrains Mono', monospace;font-size:28px;fill:rgb(0,18,255);">(</text>
                    </g>
                    <g transform="matrix(0.988325,0.15236,-0.15236,0.988325,72.8519,-271.965)">
                        <text x="1811.02px" y="339.381px" style="font-family:'JetBrainsMono-Regular', 'JetBrains Mono', monospace;font-size:28px;fill:rgb(0,18,255);">)</text>
                    </g>
                </g>
            </g>
            <g transform="matrix(0.988426,0,0,0.988426,20.0235,11.0381)">
                <g transform="matrix(1.01171,-0,-0,1.01171,1093.68,308.379)">
                    <path d="M899.314,87.659L911.183,103.91L891.06,103.655L899.314,87.659Z" style="fill:rgb(0,18,255);"/>
                    <path d="M1232.17,656.497C1222.08,982.374 954.988,1241.32 628.956,1241.32C295.875,1241.32 25.456,970.902 25.456,637.822C25.456,304.741 295.875,34.322 628.956,34.322C722.912,34.322 814.597,55.353 898.387,97.307" style="fill:none;stroke:rgb(0,18,255);stroke-width:2px;stroke-dasharray:10,10,0,0,0,0;"/>
                </g>
            </g>
        </g>
    </g>
</svg>
