<?xml version="1.0" encoding="UTF-8" standalone="no"?>
<!DOCTYPE svg PUBLIC "-//W3C//DTD SVG 1.1//EN" "http://www.w3.org/Graphics/SVG/1.1/DTD/svg11.dtd">
<svg width="100%" height="100%" viewBox="0 0 1259 1258" version="1.1" xmlns="http://www.w3.org/2000/svg" xmlns:xlink="http://www.w3.org/1999/xlink" xml:space="preserve" xmlns:serif="http://www.serif.com/" style="fill-rule:evenodd;clip-rule:evenodd;stroke-linecap:round;stroke-linejoin:round;stroke-miterlimit:1.5;">
    <g transform="matrix(1,0,0,1,-1101.04,-324.714)">
        <g id="elements">
            <g transform="matrix(-1.77196,2.17002e-16,-2.17002e-16,-1.77196,3018.74,2571.09)">
                <path d="M895,680L1011.91,882.5L778.087,882.5L895,680Z" style="fill:rgb(255,0,245);fill-opacity:0.09;stroke:rgb(255,0,213);stroke-width:1.13px;"/>
            </g>
            <g transform="matrix(-1.77196,2.17002e-16,-2.17002e-16,-1.77196,3327.78,2058.68)">
                <path d="M895,680L1011.91,882.5L778.087,882.5L895,680Z" style="fill:rgb(255,0,245);fill-opacity:0.09;stroke:rgb(255,0,213);stroke-width:1.13px;"/>
            </g>
            <g transform="matrix(-0.885979,1.53456,-1.53456,-0.885979,3492.6,132.712)">
                <path d="M895,680L1011.91,882.5L778.087,882.5L895,680Z" style="fill:rgb(255,0,245);fill-opacity:0.09;stroke:rgb(255,0,213);stroke-width:1.13px;"/>
            </g>
            <g transform="matrix(-0.885979,1.53456,-1.53456,-0.885979,4081.4,135.629)">
                <path d="M895,680L1011.91,882.5L778.087,882.5L895,680Z" style="fill:rgb(255,0,245);fill-opacity:0.09;stroke:rgb(255,0,213);stroke-width:1.13px;"/>
            </g>
            <g transform="matrix(-1.77196,-2.17002e-16,-2.17002e-16,1.77196,3312.18,-149.634)">
                <path d="M895,680L1011.91,882.5L778.087,882.5L895,680Z" style="fill:rgb(255,0,245);fill-opacity:0.09;stroke:rgb(255,0,213);stroke-width:1.13px;"/>
            </g>
            <g transform="matrix(-1.77196,2.17002e-16,-2.17002e-16,-1.77196,3609.11,2573.86)">
                <path d="M895,680L1011.91,882.5L778.087,882.5L895,680Z" style="fill:rgb(255,0,245);fill-opacity:0.09;stroke:rgb(255,0,213);stroke-width:1.13px;"/>
            </g>
            <g transform="matrix(-1,1.22465e-16,1.22465e-16,1,2403.93,633.295)">
                <g transform="matrix(-1.12187,1.3739e-16,-8.28672e-17,-0.676662,1980.26,662.638)">
                    <path d="M1126,497L667,497C666.108,497 665.357,495.924 665.214,494.488C665.199,494.326 665.19,494.164 665.19,494C665.19,492.707 665.69,491.568 666.42,491.158L743.02,448.158C743.573,447.848 744.181,447.999 744.655,448.562C745.129,449.126 745.41,450.033 745.41,451L745.41,491L1126,491C1127,491 1127.81,492.344 1127.81,494C1127.81,495.656 1127,497 1126,497Z" style="fill:rgb(143,143,143);"/>
                </g>
                <g transform="matrix(1.12187,0,0,0.676662,-31.2599,-22.1448)">
                    <path d="M1126,497L667,497C666.108,497 665.357,495.924 665.214,494.488C665.199,494.326 665.19,494.164 665.19,494C665.19,492.707 665.69,491.568 666.42,491.158L743.02,448.158C743.573,447.848 744.181,447.999 744.655,448.562C745.129,449.126 745.41,450.033 745.41,451L745.41,491L1126,491C1127,491 1127.81,492.344 1127.81,494C1127.81,495.656 1127,497 1126,497Z" style="fill:rgb(143,143,143);"/>
                </g>
            </g>
            <g transform="matrix(-0.5,-0.866025,-0.866025,0.5,2351.59,1374.98)">
                <g transform="matrix(-1.12187,1.3739e-16,-8.28672e-17,-0.676662,1980.26,662.638)">
                    <path d="M1126,497L667,497C666.108,497 665.357,495.924 665.214,494.488C665.199,494.326 665.19,494.164 665.19,494C665.19,492.707 665.69,491.568 666.42,491.158L743.02,448.158C743.573,447.848 744.181,447.999 744.655,448.562C745.129,449.126 745.41,450.033 745.41,451L745.41,491L1126,491C1127,491 1127.81,492.344 1127.81,494C1127.81,495.656 1127,497 1126,497Z" style="fill:rgb(143,143,143);"/>
                </g>
                <g transform="matrix(1.12187,0,0,0.676662,-31.2599,-22.1448)">
                    <path d="M1126,497L667,497C666.108,497 665.357,495.924 665.214,494.488C665.199,494.326 665.19,494.164 665.19,494C665.19,492.707 665.69,491.568 666.42,491.158L743.02,448.158C743.573,447.848 744.181,447.999 744.655,448.562C745.129,449.126 745.41,450.033 745.41,451L745.41,491L1126,491C1127,491 1127.81,492.344 1127.81,494C1127.81,495.656 1127,497 1126,497Z" style="fill:rgb(143,143,143);"/>
                </g>
            </g>
            <g transform="matrix(0.5,-0.866025,-0.866025,-0.5,1677.89,1704.07)">
                <g transform="matrix(-1.12187,1.3739e-16,-8.28672e-17,-0.676662,1980.26,662.638)">
                    <path d="M1126,497L667,497C666.108,497 665.357,495.924 665.214,494.488C665.199,494.326 665.19,494.164 665.19,494C665.19,492.707 665.69,491.568 666.42,491.158L743.02,448.158C743.573,447.848 744.181,447.999 744.655,448.562C745.129,449.126 745.41,450.033 745.41,451L745.41,491L1126,491C1127,491 1127.81,492.344 1127.81,494C1127.81,495.656 1127,497 1126,497Z" style="fill:rgb(143,143,143);"/>
                </g>
                <g transform="matrix(1.12187,0,0,0.676662,-31.2599,-22.1448)">
                    <path d="M1126,497L667,497C666.108,497 665.357,495.924 665.214,494.488C665.199,494.326 665.19,494.164 665.19,494C665.19,492.707 665.69,491.568 666.42,491.158L743.02,448.158C743.573,447.848 744.181,447.999 744.655,448.562C745.129,449.126 745.41,450.033 745.41,451L745.41,491L1126,491C1127,491 1127.81,492.344 1127.81,494C1127.81,495.656 1127,497 1126,497Z" style="fill:rgb(143,143,143);"/>
                </g>
            </g>
            <g transform="matrix(1,4.44089e-16,4.44089e-16,-1,1056.97,1273.92)">
                <g transform="matrix(-1.12187,1.3739e-16,-8.28672e-17,-0.676662,1980.26,662.638)">
                    <path d="M1126,497L667,497C666.108,497 665.357,495.924 665.214,494.488C665.199,494.326 665.19,494.164 665.19,494C665.19,492.707 665.69,491.568 666.42,491.158L743.02,448.158C743.573,447.848 744.181,447.999 744.655,448.562C745.129,449.126 745.41,450.033 745.41,451L745.41,491L1126,491C1127,491 1127.81,492.344 1127.81,494C1127.81,495.656 1127,497 1126,497Z" style="fill:rgb(82,82,82);"/>
                </g>
                <g transform="matrix(1.12187,0,0,0.676662,-31.2599,-22.1448)">
                    <path d="M1126,497L667,497C666.108,497 665.357,495.924 665.214,494.488C665.199,494.326 665.19,494.164 665.19,494C665.19,492.707 665.69,491.568 666.42,491.158L743.02,448.158C743.573,447.848 744.181,447.999 744.655,448.562C745.129,449.126 745.41,450.033 745.41,451L745.41,491L1126,491C1127,491 1127.81,492.344 1127.81,494C1127.81,495.656 1127,497 1126,497Z" style="fill:rgb(143,143,143);"/>
                </g>
            </g>
            <g transform="matrix(0.5,0.866025,0.866025,-0.5,1113.63,526.572)">
                <g transform="matrix(-1.12187,1.3739e-16,-8.28672e-17,-0.676662,1980.26,662.638)">
                    <path d="M1126,497L667,497C666.108,497 665.357,495.924 665.214,494.488C665.199,494.326 665.19,494.164 665.19,494C665.19,492.707 665.69,491.568 666.42,491.158L743.02,448.158C743.573,447.848 744.181,447.999 744.655,448.562C745.129,449.126 745.41,450.033 745.41,451L745.41,491L1126,491C1127,491 1127.81,492.344 1127.81,494C1127.81,495.656 1127,497 1126,497Z" style="fill:rgb(143,143,143);"/>
                </g>
                <g transform="matrix(1.12187,0,0,0.676662,-31.2599,-22.1448)">
                    <path d="M1126,497L667,497C666.108,497 665.357,495.924 665.214,494.488C665.199,494.326 665.19,494.164 665.19,494C665.19,492.707 665.69,491.568 666.42,491.158L743.02,448.158C743.573,447.848 744.181,447.999 744.655,448.562C745.129,449.126 745.41,450.033 745.41,451L745.41,491L1126,491C1127,491 1127.81,492.344 1127.81,494C1127.81,495.656 1127,497 1126,497Z" style="fill:rgb(143,143,143);"/>
                </g>
            </g>
            <g transform="matrix(0.5,-0.866025,-0.866025,-0.5,1363.22,2220.46)">
                <g transform="matrix(-1.12187,1.3739e-16,-8.28672e-17,-0.676662,1980.26,662.638)">
                    <path d="M1126,497L667,497C666.108,497 665.357,495.924 665.214,494.488C665.199,494.326 665.19,494.164 665.19,494C665.19,492.707 665.69,491.568 666.42,491.158L743.02,448.158C743.573,447.848 744.181,447.999 744.655,448.562C745.129,449.126 745.41,450.033 745.41,451L745.41,491L1126,491C1127,491 1127.81,492.344 1127.81,494C1127.81,495.656 1127,497 1126,497Z" style="fill:rgb(143,143,143);"/>
                </g>
                <g transform="matrix(1.12187,0,0,0.676662,-31.2599,-22.1448)">
                    <path d="M1126,497L667,497C666.108,497 665.357,495.924 665.214,494.488C665.199,494.326 665.19,494.164 665.19,494C665.19,492.707 665.69,491.568 666.42,491.158L743.02,448.158C743.573,447.848 744.181,447.999 744.655,448.562C745.129,449.126 745.41,450.033 745.41,451L745.41,491L1126,491C1127,491 1127.81,492.344 1127.81,494C1127.81,495.656 1127,497 1126,497Z" style="fill:rgb(143,143,143);"/>
                </g>
            </g>
            <g transform="matrix(1,0,0,1,340.019,423.17)">
                <circle cx="789.5" cy="530.5" r="26.5" style="fill:rgb(0,18,255);"/>
            </g>
            <g transform="matrix(1,0,0,1,634.503,943)">
                <circle cx="789.5" cy="530.5" r="26.5" style="fill:rgb(0,18,255);"/>
            </g>
            <g transform="matrix(1,0,0,1,939.837,423.17)">
                <circle cx="789.5" cy="530.5" r="26.5" style="fill:white;stroke:rgb(212,0,2);stroke-width:2px;stroke-linecap:butt;stroke-miterlimit:2;"/>
            </g>
            <g transform="matrix(1,0,0,1,650.323,-97.4861)">
                <circle cx="789.5" cy="530.5" r="26.5" style="fill:rgb(0,18,255);"/>
            </g>
            <g transform="matrix(1,0,0,1,1247.75,-95.3537)">
                <circle cx="789.5" cy="530.5" r="26.5" style="fill:rgb(0,18,255);"/>
            </g>
            <g transform="matrix(1,0,0,1,1544,423.17)">
                <circle cx="789.5" cy="530.5" r="26.5" style="fill:rgb(0,18,255);"/>
            </g>
            <g transform="matrix(1,0,0,1,1237.37,946.653)">
                <circle cx="789.5" cy="530.5" r="26.5" style="fill:rgb(0,18,255);"/>
            </g>
            <g transform="matrix(1,0,0,1,1696.5,1008.1)">
                <g transform="matrix(28,0,0,28,67.2,0)">
                </g>
                <text x="0px" y="0px" style="font-family:'JetBrainsMono-Regular', 'JetBrains Mono', monospace;font-size:28px;fill:none;stroke:white;stroke-width:8px;stroke-linecap:butt;stroke-miterlimit:2;">self</text>
                <g transform="matrix(28,0,0,28,67.2,0)">
                </g>
                <text x="0px" y="0px" style="font-family:'JetBrainsMono-Regular', 'JetBrains Mono', monospace;font-size:28px;fill:rgb(212,0,2);">self</text>
            </g>
        </g>
        <g id="neighbors_halfedges">
            <g transform="matrix(0.914724,0,0,0.914724,147.517,81.3254)">
                <g transform="matrix(1.09323,0,0,1.09323,-104.361,-31.9862)">
                    <g transform="matrix(0.96218,-0.272415,0.272415,0.96218,-42.4258,427.274)">
                        <text x="1517.6px" y="366.432px" style="font-family:'JetBrainsMono-Regular', 'JetBrains Mono', monospace;font-size:28px;fill:none;stroke:white;stroke-width:8px;stroke-linecap:butt;stroke-miterlimit:2;">o</text>
                    </g>
                    <g transform="matrix(0.970007,-0.243078,0.243078,0.970007,-41.9546,383.682)">
                        <text x="1533.78px" y="361.85px" style="font-family:'JetBrainsMono-Regular', 'JetBrains Mono', monospace;font-size:28px;fill:none;stroke:white;stroke-width:8px;stroke-linecap:butt;stroke-miterlimit:2;">u</text>
                    </g>
                    <g transform="matrix(0.976793,-0.214184,0.214184,0.976793,-40.6563,340.305)">
                        <text x="1550.08px" y="357.77px" style="font-family:'JetBrainsMono-Regular', 'JetBrains Mono', monospace;font-size:28px;fill:none;stroke:white;stroke-width:8px;stroke-linecap:butt;stroke-miterlimit:2;">t</text>
                    </g>
                    <g transform="matrix(0.982917,-0.184048,0.184048,0.982917,-38.4263,294.358)">
                        <text x="1566.49px" y="354.18px" style="font-family:'JetBrainsMono-Regular', 'JetBrains Mono', monospace;font-size:28px;fill:none;stroke:white;stroke-width:8px;stroke-linecap:butt;stroke-miterlimit:2;">g</text>
                    </g>
                    <g transform="matrix(0.98805,-0.154136,0.154136,0.98805,-35.1979,248.193)">
                        <text x="1583px" y="351.088px" style="font-family:'JetBrainsMono-Regular', 'JetBrains Mono', monospace;font-size:28px;fill:none;stroke:white;stroke-width:8px;stroke-linecap:butt;stroke-miterlimit:2;">o</text>
                    </g>
                    <g transform="matrix(0.992367,-0.123321,0.123321,0.992367,-30.7665,199.923)">
                        <text x="1599.59px" y="348.492px" style="font-family:'JetBrainsMono-Regular', 'JetBrains Mono', monospace;font-size:28px;fill:none;stroke:white;stroke-width:8px;stroke-linecap:butt;stroke-miterlimit:2;">i</text>
                    </g>
                    <g transform="matrix(0.995536,-0.0943836,0.0943836,0.995536,-25.4803,154.096)">
                        <text x="1616.27px" y="346.411px" style="font-family:'JetBrainsMono-Regular', 'JetBrains Mono', monospace;font-size:28px;fill:none;stroke:white;stroke-width:8px;stroke-linecap:butt;stroke-miterlimit:2;">n</text>
                    </g>
                    <g transform="matrix(0.997903,-0.0647238,0.0647238,0.997903,-18.8944,106.417)">
                        <text x="1633px" y="344.826px" style="font-family:'JetBrainsMono-Regular', 'JetBrains Mono', monospace;font-size:28px;fill:none;stroke:white;stroke-width:8px;stroke-linecap:butt;stroke-miterlimit:2;">g</text>
                    </g>
                    <g transform="matrix(0.999392,-0.0348681,0.0348681,0.999392,-10.9824,57.7328)">
                        <text x="1649.75px" y="343.74px" style="font-family:'JetBrainsMono-Regular', 'JetBrains Mono', monospace;font-size:28px;fill:none;stroke:white;stroke-width:8px;stroke-linecap:butt;stroke-miterlimit:2;">_</text>
                    </g>
                    <g transform="matrix(0.999987,-0.00515333,0.00515333,0.999987,-1.74625,8.59295)">
                        <text x="1666.57px" y="343.154px" style="font-family:'JetBrainsMono-Regular', 'JetBrains Mono', monospace;font-size:28px;fill:none;stroke:white;stroke-width:8px;stroke-linecap:butt;stroke-miterlimit:2;">h</text>
                    </g>
                    <g transform="matrix(0.999729,0.0232605,-0.0232605,0.999729,8.43551,-39.0637)">
                        <text x="1683.39px" y="343.072px" style="font-family:'JetBrainsMono-Regular', 'JetBrains Mono', monospace;font-size:28px;fill:none;stroke:white;stroke-width:8px;stroke-linecap:butt;stroke-miterlimit:2;">a</text>
                    </g>
                    <g transform="matrix(0.99862,0.0525266,-0.0525266,0.99862,20.3885,-88.831)">
                        <text x="1700.19px" y="343.472px" style="font-family:'JetBrainsMono-Regular', 'JetBrains Mono', monospace;font-size:28px;fill:none;stroke:white;stroke-width:8px;stroke-linecap:butt;stroke-miterlimit:2;">l</text>
                    </g>
                    <g transform="matrix(0.99662,0.082145,-0.082145,0.99662,34.0897,-139.873)">
                        <text x="1716.92px" y="344.356px" style="font-family:'JetBrainsMono-Regular', 'JetBrains Mono', monospace;font-size:28px;fill:none;stroke:white;stroke-width:8px;stroke-linecap:butt;stroke-miterlimit:2;">f</text>
                    </g>
                    <g transform="matrix(0.993731,0.111794,-0.111794,0.993731,49.5196,-191.649)">
                        <text x="1733.69px" y="345.739px" style="font-family:'JetBrainsMono-Regular', 'JetBrains Mono', monospace;font-size:28px;fill:none;stroke:white;stroke-width:8px;stroke-linecap:butt;stroke-miterlimit:2;">e</text>
                    </g>
                    <g transform="matrix(0.98998,0.141207,-0.141207,0.98998,66.6247,-243.682)">
                        <text x="1750.38px" y="347.618px" style="font-family:'JetBrainsMono-Regular', 'JetBrains Mono', monospace;font-size:28px;fill:none;stroke:white;stroke-width:8px;stroke-linecap:butt;stroke-miterlimit:2;">d</text>
                    </g>
                    <g transform="matrix(0.985283,0.170931,-0.170931,0.985283,85.8304,-296.888)">
                        <text x="1767.02px" y="349.995px" style="font-family:'JetBrainsMono-Regular', 'JetBrains Mono', monospace;font-size:28px;fill:none;stroke:white;stroke-width:8px;stroke-linecap:butt;stroke-miterlimit:2;">g</text>
                    </g>
                    <g transform="matrix(0.979653,0.200698,-0.200698,0.979653,107.109,-350.777)">
                        <text x="1783.56px" y="352.864px" style="font-family:'JetBrainsMono-Regular', 'JetBrains Mono', monospace;font-size:28px;fill:none;stroke:white;stroke-width:8px;stroke-linecap:butt;stroke-miterlimit:2;">e</text>
                    </g>
                    <g transform="matrix(0.973038,0.230643,-0.230643,0.973038,130.697,-405.564)">
                        <text x="1800.05px" y="356.241px" style="font-family:'JetBrainsMono-Regular', 'JetBrains Mono', monospace;font-size:28px;fill:none;stroke:white;stroke-width:8px;stroke-linecap:butt;stroke-miterlimit:2;">s</text>
                    </g>
                    <g transform="matrix(0.965163,0.261651,-0.261651,0.965163,157.498,-462.716)">
                        <text x="1816.4px" y="360.097px" style="font-family:'JetBrainsMono-Regular', 'JetBrains Mono', monospace;font-size:28px;fill:none;stroke:white;stroke-width:8px;stroke-linecap:butt;stroke-miterlimit:2;">(</text>
                    </g>
                    <g transform="matrix(0.957765,0.287551,-0.287551,0.957765,182.205,-511.563)">
                        <text x="1832.57px" y="364.48px" style="font-family:'JetBrainsMono-Regular', 'JetBrains Mono', monospace;font-size:28px;fill:none;stroke:white;stroke-width:8px;stroke-linecap:butt;stroke-miterlimit:2;">)</text>
                    </g>
                </g>
                <g transform="matrix(1.09323,0,0,1.09323,-104.361,-31.9862)">
                    <g transform="matrix(0.96218,-0.272415,0.272415,0.96218,-42.4258,427.274)">
                        <text x="1517.6px" y="366.432px" style="font-family:'JetBrainsMono-Regular', 'JetBrains Mono', monospace;font-size:28px;fill:rgb(143,143,143);">o</text>
                    </g>
                    <g transform="matrix(0.970007,-0.243078,0.243078,0.970007,-41.9546,383.682)">
                        <text x="1533.78px" y="361.85px" style="font-family:'JetBrainsMono-Regular', 'JetBrains Mono', monospace;font-size:28px;fill:rgb(143,143,143);">u</text>
                    </g>
                    <g transform="matrix(0.976793,-0.214184,0.214184,0.976793,-40.6563,340.305)">
                        <text x="1550.08px" y="357.77px" style="font-family:'JetBrainsMono-Regular', 'JetBrains Mono', monospace;font-size:28px;fill:rgb(143,143,143);">t</text>
                    </g>
                    <g transform="matrix(0.982917,-0.184048,0.184048,0.982917,-38.4263,294.358)">
                        <text x="1566.49px" y="354.18px" style="font-family:'JetBrainsMono-Regular', 'JetBrains Mono', monospace;font-size:28px;fill:rgb(143,143,143);">g</text>
                    </g>
                    <g transform="matrix(0.98805,-0.154136,0.154136,0.98805,-35.1979,248.193)">
                        <text x="1583px" y="351.088px" style="font-family:'JetBrainsMono-Regular', 'JetBrains Mono', monospace;font-size:28px;fill:rgb(143,143,143);">o</text>
                    </g>
                    <g transform="matrix(0.992367,-0.123321,0.123321,0.992367,-30.7665,199.923)">
                        <text x="1599.59px" y="348.492px" style="font-family:'JetBrainsMono-Regular', 'JetBrains Mono', monospace;font-size:28px;fill:rgb(143,143,143);">i</text>
                    </g>
                    <g transform="matrix(0.995536,-0.0943836,0.0943836,0.995536,-25.4803,154.096)">
                        <text x="1616.27px" y="346.411px" style="font-family:'JetBrainsMono-Regular', 'JetBrains Mono', monospace;font-size:28px;fill:rgb(143,143,143);">n</text>
                    </g>
                    <g transform="matrix(0.997903,-0.0647238,0.0647238,0.997903,-18.8944,106.417)">
                        <text x="1633px" y="344.826px" style="font-family:'JetBrainsMono-Regular', 'JetBrains Mono', monospace;font-size:28px;fill:rgb(143,143,143);">g</text>
                    </g>
                    <g transform="matrix(0.999392,-0.0348681,0.0348681,0.999392,-10.9824,57.7328)">
                        <text x="1649.75px" y="343.74px" style="font-family:'JetBrainsMono-Regular', 'JetBrains Mono', monospace;font-size:28px;fill:rgb(143,143,143);">_</text>
                    </g>
                    <g transform="matrix(0.999987,-0.00515333,0.00515333,0.999987,-1.74625,8.59295)">
                        <text x="1666.57px" y="343.154px" style="font-family:'JetBrainsMono-Regular', 'JetBrains Mono', monospace;font-size:28px;fill:rgb(143,143,143);">h</text>
                    </g>
                    <g transform="matrix(0.999729,0.0232605,-0.0232605,0.999729,8.43551,-39.0637)">
                        <text x="1683.39px" y="343.072px" style="font-family:'JetBrainsMono-Regular', 'JetBrains Mono', monospace;font-size:28px;fill:rgb(143,143,143);">a</text>
                    </g>
                    <g transform="matrix(0.99862,0.0525266,-0.0525266,0.99862,20.3885,-88.831)">
                        <text x="1700.19px" y="343.472px" style="font-family:'JetBrainsMono-Regular', 'JetBrains Mono', monospace;font-size:28px;fill:rgb(143,143,143);">l</text>
                    </g>
                    <g transform="matrix(0.99662,0.082145,-0.082145,0.99662,34.0897,-139.873)">
                        <text x="1716.92px" y="344.356px" style="font-family:'JetBrainsMono-Regular', 'JetBrains Mono', monospace;font-size:28px;fill:rgb(143,143,143);">f</text>
                    </g>
                    <g transform="matrix(0.993731,0.111794,-0.111794,0.993731,49.5196,-191.649)">
                        <text x="1733.69px" y="345.739px" style="font-family:'JetBrainsMono-Regular', 'JetBrains Mono', monospace;font-size:28px;fill:rgb(143,143,143);">e</text>
                    </g>
                    <g transform="matrix(0.98998,0.141207,-0.141207,0.98998,66.6247,-243.682)">
                        <text x="1750.38px" y="347.618px" style="font-family:'JetBrainsMono-Regular', 'JetBrains Mono', monospace;font-size:28px;fill:rgb(143,143,143);">d</text>
                    </g>
                    <g transform="matrix(0.985283,0.170931,-0.170931,0.985283,85.8304,-296.888)">
                        <text x="1767.02px" y="349.995px" style="font-family:'JetBrainsMono-Regular', 'JetBrains Mono', monospace;font-size:28px;fill:rgb(143,143,143);">g</text>
                    </g>
                    <g transform="matrix(0.979653,0.200698,-0.200698,0.979653,107.109,-350.777)">
                        <text x="1783.56px" y="352.864px" style="font-family:'JetBrainsMono-Regular', 'JetBrains Mono', monospace;font-size:28px;fill:rgb(143,143,143);">e</text>
                    </g>
                    <g transform="matrix(0.973038,0.230643,-0.230643,0.973038,130.697,-405.564)">
                        <text x="1800.05px" y="356.241px" style="font-family:'JetBrainsMono-Regular', 'JetBrains Mono', monospace;font-size:28px;fill:rgb(143,143,143);">s</text>
                    </g>
                    <g transform="matrix(0.965163,0.261651,-0.261651,0.965163,157.498,-462.716)">
                        <text x="1816.4px" y="360.097px" style="font-family:'JetBrainsMono-Regular', 'JetBrains Mono', monospace;font-size:28px;fill:rgb(143,143,143);">(</text>
                    </g>
                    <g transform="matrix(0.957765,0.287551,-0.287551,0.957765,182.205,-511.563)">
                        <text x="1832.57px" y="364.48px" style="font-family:'JetBrainsMono-Regular', 'JetBrains Mono', monospace;font-size:28px;fill:rgb(143,143,143);">)</text>
                    </g>
                </g>
            </g>
            <g transform="matrix(0.988426,0,0,0.988426,20.0235,11.0381)">
                <g transform="matrix(1.01171,-0,-0,1.01171,1093.68,317.349)">
                    <path d="M899.314,78.793L911.183,95.045L891.06,94.789L899.314,78.793Z" style="fill:rgb(0,18,255);"/>
                    <path d="M1232.17,647.631C1222.08,973.508 954.988,1232.46 628.956,1232.46C295.875,1232.46 25.456,962.037 25.456,628.956C25.456,295.875 295.875,25.456 628.956,25.456C722.912,25.456 814.597,46.487 898.387,88.441" style="fill:none;stroke:rgb(0,18,255);stroke-width:2px;stroke-dasharray:10,10,0,0,0,0;"/>
                </g>
            </g>
        </g>
    </g>
</svg>
