<?xml version="1.0" encoding="UTF-8" standalone="no"?><!DOCTYPE svg PUBLIC "-//W3C//DTD SVG 1.1//EN" "http://www.w3.org/Graphics/SVG/1.1/DTD/svg11.dtd"><svg width="100%" height="100%" viewBox="0 0 653 1045" version="1.1" xmlns="http://www.w3.org/2000/svg" xmlns:xlink="http://www.w3.org/1999/xlink" xml:space="preserve" xmlns:serif="http://www.serif.com/" style="fill-rule:evenodd;clip-rule:evenodd;stroke-linecap:round;stroke-linejoin:round;stroke-miterlimit:1.5;"><g id="elements"><path d="M329.815,911.056l-207.165,-358.821l414.331,-0l-207.166,358.821Z" style="fill:#ff00f5;fill-opacity:0.09;stroke:#ff00d5;stroke-width:2px;"/><g><path d="M583.875,504.534l-514.939,-0c-1,-0 -1.843,0.728 -2.003,1.699c-0.017,0.11 -0.027,0.22 -0.027,0.33c-0,0.875 0.561,1.646 1.38,1.924l85.935,29.096c0.62,0.21 1.302,0.108 1.834,-0.273c0.532,-0.382 0.847,-0.996 0.847,-1.65l0,-27.067l426.973,0c1.122,0 2.03,-0.909 2.03,-2.03c0,-1.12 -0.908,-2.029 -2.03,-2.029Z" style="fill:none;stroke:#d40002;stroke-width:4px;stroke-linecap:butt;stroke-miterlimit:2;"/><path d="M583.875,504.534l-514.939,-0c-1,-0 -1.843,0.728 -2.003,1.699c-0.017,0.11 -0.027,0.22 -0.027,0.33c-0,0.875 0.561,1.646 1.38,1.924l85.935,29.096c0.62,0.21 1.302,0.108 1.834,-0.273c0.532,-0.382 0.847,-0.996 0.847,-1.65l0,-27.067l426.973,0c1.122,0 2.03,-0.909 2.03,-2.03c0,-1.12 -0.908,-2.029 -2.03,-2.029Z" style="fill:#fff;"/><path d="M68.943,492.353l514.939,-0c1,-0 1.843,-0.728 2.003,-1.7c0.017,-0.11 0.027,-0.219 0.027,-0.33c0,-0.875 -0.561,-1.646 -1.38,-1.923l-85.935,-29.097c-0.62,-0.21 -1.302,-0.107 -1.834,0.274c-0.532,0.381 -0.847,0.995 -0.847,1.649l-0,27.067l-426.973,-0c-1.121,-0 -2.03,0.909 -2.03,2.03c-0,1.12 0.909,2.03 2.03,2.03Z" style="fill:#8f8f8f;"/></g><g><path d="M610.439,455.08l-257.469,-445.95c-0.5,-0.867 -1.552,-1.232 -2.474,-0.885c-0.103,0.04 -0.203,0.086 -0.299,0.142c-0.758,0.437 -1.145,1.308 -0.976,2.156l17.77,88.97c0.128,0.643 0.558,1.182 1.154,1.452c0.596,0.27 1.285,0.236 1.852,-0.091l23.44,-13.533l213.486,369.769c0.561,0.971 1.803,1.304 2.774,0.743c0.97,-0.56 1.303,-1.802 0.742,-2.773Z" style="fill:#8f8f8f;"/><path d="M363.523,3.046l257.469,445.949c0.5,0.867 1.552,1.233 2.474,0.886c0.103,-0.041 0.203,-0.087 0.299,-0.142c0.758,-0.438 1.145,-1.309 0.976,-2.157l-17.77,-88.97c-0.128,-0.642 -0.558,-1.182 -1.154,-1.452c-0.596,-0.269 -1.285,-0.236 -1.852,0.092l-23.44,13.533l-213.486,-369.769c-0.561,-0.972 -1.803,-1.304 -2.774,-0.744c-0.97,0.56 -1.303,1.802 -0.742,2.774Z" style="fill:#8f8f8f;"/></g><g><path d="M336.106,981.224l257.469,-445.95c0.501,-0.866 0.291,-1.96 -0.47,-2.585c-0.087,-0.069 -0.176,-0.133 -0.273,-0.188c-0.757,-0.438 -1.705,-0.337 -2.355,0.233l-68.166,59.874c-0.492,0.433 -0.744,1.074 -0.68,1.725c0.064,0.652 0.438,1.232 1.005,1.559l23.44,13.533l-213.486,369.769c-0.561,0.972 -0.228,2.213 0.743,2.774c0.97,0.56 2.212,0.228 2.773,-0.744Z" style="fill:#525252;"/><path d="M604.121,541.371l-257.47,445.949c-0.5,0.867 -0.291,1.961 0.471,2.586c0.086,0.069 0.176,0.132 0.272,0.188c0.758,0.437 1.706,0.337 2.355,-0.234l68.166,-59.873c0.492,-0.433 0.745,-1.075 0.681,-1.726c-0.065,-0.651 -0.439,-1.231 -1.005,-1.558l-23.441,-13.533l213.487,-369.769c0.56,-0.972 0.227,-2.214 -0.743,-2.774c-0.971,-0.56 -2.213,-0.228 -2.773,0.744Z" style="fill:#8f8f8f;"/></g><g><path d="M57.979,529.28l257.469,445.95c0.501,0.866 1.553,1.232 2.474,0.885c0.104,-0.04 0.204,-0.086 0.3,-0.142c0.758,-0.437 1.144,-1.308 0.975,-2.156l-17.769,-88.971c-0.129,-0.642 -0.558,-1.181 -1.154,-1.451c-0.596,-0.27 -1.285,-0.236 -1.852,0.091l-23.44,13.533l-213.487,-369.769c-0.561,-0.972 -1.803,-1.304 -2.773,-0.744c-0.97,0.561 -1.304,1.802 -0.743,2.774Z" style="fill:#525252;"/><path d="M304.896,981.314l-257.469,-445.95c-0.5,-0.866 -1.552,-1.232 -2.474,-0.885c-0.103,0.04 -0.203,0.086 -0.299,0.142c-0.758,0.437 -1.145,1.308 -0.976,2.156l17.77,88.971c0.128,0.642 0.558,1.181 1.153,1.452c0.597,0.269 1.286,0.235 1.853,-0.092l23.44,-13.533l213.486,369.769c0.561,0.972 1.803,1.304 2.773,0.744c0.971,-0.561 1.304,-1.802 0.743,-2.774Z" style="fill:#8f8f8f;"/></g><circle cx="26.5" cy="498.572" r="26.5" style="fill:#0012ff;"/><circle cx="320.984" cy="1018.4" r="26.5" style="fill:#0012ff;"/><circle cx="626.318" cy="498.572" r="26.5" style="fill:#0012ff;"/><g transform="matrix(1,0,0,1,361.55,518.957)"><g transform="matrix(28,0,0,28,67.2,0)"></g><text x="0px" y="0px" style="font-family:'JetBrainsMono-Regular', 'JetBrains Mono', monospace;font-size:28px;fill:none;stroke:#fff;stroke-width:8px;stroke-linecap:butt;stroke-miterlimit:2;">self</text><g transform="matrix(28,0,0,28,67.2,0)"></g><text x="0px" y="0px" style="font-family:'JetBrainsMono-Regular', 'JetBrains Mono', monospace;font-size:28px;fill:#d40002;">self</text></g></g><g id="cw_rotated_neighbour"><g transform="matrix(1,0,0,1,150.277,378.137)"><g transform="matrix(28,0,0,28,369.6,0)"></g><text x="0px" y="0px" style="font-family:'JetBrainsMono-Regular', 'JetBrains Mono', monospace;font-size:28px;fill:none;stroke:#fff;stroke-width:8px;stroke-linecap:butt;stroke-miterlimit:2;">cw_rotated_neighbour()</text><g transform="matrix(28,0,0,28,369.6,0)"></g><text x="0px" y="0px" style="font-family:'JetBrainsMono-Regular', 'JetBrains Mono', monospace;font-size:28px;fill:#8f8f8f;">cw_rotated_neighbour()</text></g><path d="M529.489,366.518l20.01,-2.148l-10.287,17.296l-9.723,-15.148Z" style="fill:#009807;"/><path d="M486.361,502.561c1.478,-50.912 14.103,-102.57 51.019,-130.413" style="fill:none;stroke:#009807;stroke-width:2px;stroke-dasharray:10,10,0,0,0,0;"/></g></svg>