<?xml version="1.0" encoding="UTF-8" standalone="no"?><!DOCTYPE svg PUBLIC "-//W3C//DTD SVG 1.1//EN" "http://www.w3.org/Graphics/SVG/1.1/DTD/svg11.dtd"><svg width="100%" height="100%" viewBox="0 0 655 1045" version="1.1" xmlns="http://www.w3.org/2000/svg" xmlns:xlink="http://www.w3.org/1999/xlink" xml:space="preserve" xmlns:serif="http://www.serif.com/" style="fill-rule:evenodd;clip-rule:evenodd;stroke-linecap:round;stroke-linejoin:round;stroke-miterlimit:1.5;"><g id="elements"><path d="M331.22,911.056l-207.165,-358.821l414.331,-0l-207.166,358.821Z" style="fill:#ff00f5;fill-opacity:0.09;stroke:#ff00d5;stroke-width:2px;"/><g><path d="M585.279,504.534l-514.938,-0c-1.001,-0 -1.843,0.728 -2.004,1.699c-0.016,0.11 -0.027,0.22 -0.027,0.33c0,0.875 0.561,1.646 1.38,1.924l85.936,29.096c0.62,0.21 1.302,0.108 1.834,-0.273c0.532,-0.382 0.847,-0.996 0.847,-1.65l-0,-27.067l426.972,0c1.122,0 2.031,-0.909 2.031,-2.03c-0,-1.12 -0.909,-2.029 -2.031,-2.029Z" style="fill:none;stroke:#d40002;stroke-width:4px;stroke-linecap:butt;stroke-miterlimit:2;"/><path d="M585.279,504.534l-514.938,-0c-1.001,-0 -1.843,0.728 -2.004,1.699c-0.016,0.11 -0.027,0.22 -0.027,0.33c0,0.875 0.561,1.646 1.38,1.924l85.936,29.096c0.62,0.21 1.302,0.108 1.834,-0.273c0.532,-0.382 0.847,-0.996 0.847,-1.65l-0,-27.067l426.972,0c1.122,0 2.031,-0.909 2.031,-2.03c-0,-1.12 -0.909,-2.029 -2.031,-2.029Z" style="fill:#fff;"/><path d="M70.348,492.353l514.938,-0c1.001,-0 1.844,-0.728 2.004,-1.7c0.017,-0.11 0.027,-0.219 0.027,-0.33c-0,-0.875 -0.561,-1.646 -1.38,-1.923l-85.935,-29.097c-0.621,-0.21 -1.303,-0.107 -1.834,0.274c-0.532,0.381 -0.847,0.995 -0.847,1.649l-0,27.067l-426.973,-0c-1.122,-0 -2.031,0.909 -2.031,2.03c0,1.12 0.909,2.03 2.031,2.03Z" style="fill:#8f8f8f;"/></g><g><path d="M611.844,455.08l-257.469,-445.95c-0.5,-0.867 -1.552,-1.232 -2.474,-0.885c-0.103,0.04 -0.203,0.086 -0.299,0.142c-0.758,0.437 -1.145,1.308 -0.976,2.156l17.769,88.97c0.129,0.643 0.559,1.182 1.154,1.452c0.597,0.27 1.286,0.236 1.853,-0.091l23.44,-13.533l213.486,369.769c0.561,0.971 1.803,1.304 2.773,0.743c0.971,-0.56 1.304,-1.802 0.743,-2.773Z" style="fill:#8f8f8f;"/><path d="M364.927,3.046l257.469,445.949c0.501,0.867 1.553,1.233 2.474,0.886c0.104,-0.041 0.204,-0.087 0.3,-0.142c0.757,-0.438 1.144,-1.309 0.975,-2.157l-17.769,-88.97c-0.129,-0.642 -0.558,-1.182 -1.154,-1.452c-0.596,-0.269 -1.286,-0.236 -1.852,0.092l-23.44,13.533l-213.487,-369.769c-0.561,-0.972 -1.803,-1.304 -2.773,-0.744c-0.97,0.56 -1.304,1.802 -0.743,2.774Z" style="fill:#8f8f8f;"/></g><g><path d="M337.511,981.224l257.469,-445.95c0.5,-0.866 0.291,-1.96 -0.47,-2.585c-0.087,-0.069 -0.177,-0.133 -0.273,-0.188c-0.758,-0.438 -1.706,-0.337 -2.355,0.233l-68.166,59.874c-0.492,0.433 -0.745,1.074 -0.681,1.725c0.065,0.652 0.439,1.232 1.006,1.559l23.44,13.533l-213.486,369.769c-0.561,0.972 -0.228,2.213 0.742,2.774c0.971,0.56 2.213,0.228 2.774,-0.744Z" style="fill:#525252;"/><path d="M605.525,541.371l-257.469,445.949c-0.5,0.867 -0.291,1.961 0.47,2.586c0.087,0.069 0.177,0.132 0.273,0.188c0.757,0.437 1.705,0.337 2.355,-0.234l68.166,-59.873c0.492,-0.433 0.744,-1.075 0.68,-1.726c-0.064,-0.651 -0.438,-1.231 -1.005,-1.558l-23.44,-13.533l213.486,-369.769c0.561,-0.972 0.228,-2.214 -0.742,-2.774c-0.971,-0.56 -2.213,-0.228 -2.774,0.744Z" style="fill:#8f8f8f;"/></g><g><path d="M59.384,529.28l257.469,445.95c0.501,0.866 1.552,1.232 2.474,0.885c0.103,-0.04 0.203,-0.086 0.299,-0.142c0.758,-0.437 1.145,-1.308 0.976,-2.156l-17.769,-88.971c-0.129,-0.642 -0.558,-1.181 -1.154,-1.451c-0.597,-0.27 -1.286,-0.236 -1.852,0.091l-23.441,13.533l-213.486,-369.769c-0.561,-0.972 -1.803,-1.304 -2.773,-0.744c-0.971,0.561 -1.304,1.802 -0.743,2.774Z" style="fill:#525252;"/><path d="M306.301,981.314l-257.469,-445.95c-0.501,-0.866 -1.553,-1.232 -2.474,-0.885c-0.104,0.04 -0.204,0.086 -0.3,0.142c-0.757,0.437 -1.144,1.308 -0.975,2.156l17.769,88.971c0.129,0.642 0.558,1.181 1.154,1.452c0.596,0.269 1.286,0.235 1.852,-0.092l23.441,-13.533l213.486,369.769c0.561,0.972 1.803,1.304 2.773,0.744c0.971,-0.561 1.304,-1.802 0.743,-2.774Z" style="fill:#8f8f8f;"/></g><circle cx="27.905" cy="498.572" r="26.5" style="fill:#0012ff;"/><circle cx="322.388" cy="1018.4" r="26.5" style="fill:#0012ff;"/><circle cx="627.723" cy="498.572" r="26.5" style="fill:#0012ff;"/><g transform="matrix(1,0,0,1,362.954,518.957)"><g transform="matrix(28,0,0,28,67.2,0)"></g><text x="0px" y="0px" style="font-family:'JetBrainsMono-Regular', 'JetBrains Mono', monospace;font-size:28px;fill:none;stroke:#fff;stroke-width:8px;stroke-linecap:butt;stroke-miterlimit:2;">self</text><g transform="matrix(28,0,0,28,67.2,0)"></g><text x="0px" y="0px" style="font-family:'JetBrainsMono-Regular', 'JetBrains Mono', monospace;font-size:28px;fill:#d40002;">self</text></g></g><g id="end_vertex"><g transform="matrix(1,0,0,1,1.62,437.306)"><g transform="matrix(28,0,0,28,168,0)"></g><text x="0px" y="0px" style="font-family:'JetBrainsMono-Regular', 'JetBrains Mono', monospace;font-size:28px;fill:none;stroke:#fff;stroke-width:8px;stroke-linecap:butt;stroke-miterlimit:2;">end_vertex</text><g transform="matrix(28,0,0,28,168,0)"></g><text x="0px" y="0px" style="font-family:'JetBrainsMono-Regular', 'JetBrains Mono', monospace;font-size:28px;fill:#0012ff;">end_vertex</text></g><path d="M80.716,462.245l-17.562,9.827l2.676,-19.946l14.886,10.119Z" style="fill:#009807;"/><path d="M164.013,501.853c-1.683,-29.044 -17.442,-49.295 -37.156,-54.879c-13.939,-3.948 -38.323,-6.315 -55.607,13.189" style="fill:none;stroke:#009807;stroke-width:2px;stroke-dasharray:10,10,0,0,0,0;"/></g></svg>